<svg width="128" height="158" viewBox="0 0 128 158" fill="none" xmlns="http://www.w3.org/2000/svg">
<path d="M86.66 36.42C78.2899 36.42 69.77 36.08 61.7999 33.86C53.9799 31.69 46.7999 27.48 40.3999 22.61C36.2099 19.44 32.3999 16.92 26.9599 17.3C21.6335 17.5916 16.5423 19.5901 12.4399 23C5.51995 29 6.55995 40.23 9.32995 48.12C13.4899 60 26.1499 68.23 36.9099 73.61C49.34 79.82 63 83.42 76.6899 85.5C88.6899 87.32 104.11 88.65 114.51 80.81C124.06 73.61 126.68 57.17 124.34 46.07C123.773 42.7879 122.027 39.8257 119.43 37.74C112.72 32.84 102.71 36.11 95.1699 36.28C92.3699 36.34 89.52 36.41 86.66 36.42Z" fill="#F2F2F2"/>
<path d="M66.18 104.95C86.4543 104.95 102.89 103.925 102.89 102.66C102.89 101.395 86.4543 100.37 66.18 100.37C45.9056 100.37 29.47 101.395 29.47 102.66C29.47 103.925 45.9056 104.95 66.18 104.95Z" fill="#F2F2F2"/>
<path d="M13.5401 72.43C14.0813 72.43 14.5201 71.9912 14.5201 71.45C14.5201 70.9087 14.0813 70.47 13.5401 70.47C12.9988 70.47 12.5601 70.9087 12.5601 71.45C12.5601 71.9912 12.9988 72.43 13.5401 72.43Z" fill="#CFCFCF"/>
<path d="M55.78 84.86V89.17" stroke="#BABABA" stroke-linecap="round" stroke-linejoin="round"/>
<path d="M53.6299 87.02H57.9299" stroke="#BABABA" stroke-linecap="round" stroke-linejoin="round"/>
<path d="M107.41 17.08H24.9401C22.8083 17.08 21.0801 18.8081 21.0801 20.94V77.51C21.0801 79.6418 22.8083 81.37 24.9401 81.37H107.41C109.542 81.37 111.27 79.6418 111.27 77.51V20.94C111.27 18.8081 109.542 17.08 107.41 17.08Z" fill="white" stroke="#BABABA" stroke-linecap="round" stroke-linejoin="round"/>
<path d="M99.11 34.1801H33.23C31.7057 34.1801 30.47 35.4157 30.47 36.9401V72.8901C30.47 74.4144 31.7057 75.6501 33.23 75.6501H99.11C100.634 75.6501 101.87 74.4144 101.87 72.8901V36.9401C101.87 35.4157 100.634 34.1801 99.11 34.1801Z" fill="white" stroke="#BABABA" stroke-linecap="round" stroke-linejoin="round"/>
<path d="M111.27 27.91V21C111.271 20.4923 111.173 19.9892 110.979 19.5198C110.786 19.0503 110.502 18.6236 110.143 18.2641C109.785 17.9046 109.359 17.6194 108.89 17.4248C108.421 17.2302 107.918 17.13 107.41 17.13H24.9401C24.4323 17.13 23.9296 17.2302 23.4606 17.4248C22.9916 17.6194 22.5657 17.9046 22.2071 18.2641C21.8486 18.6236 21.5644 19.0503 21.371 19.5198C21.1776 19.9892 21.0788 20.4923 21.0801 21V28L111.27 27.91Z" fill="#D2D2D2"/>
<path d="M48.1799 10.59V23.04" stroke="#BABABA" stroke-linecap="round" stroke-linejoin="round"/>
<path d="M84.1799 10.59V23.04" stroke="#BABABA" stroke-linecap="round" stroke-linejoin="round"/>
<path d="M97.5501 11.42C98.0913 11.42 98.5301 10.9812 98.5301 10.44C98.5301 9.89872 98.0913 9.45996 97.5501 9.45996C97.0088 9.45996 96.5701 9.89872 96.5701 10.44C96.5701 10.9812 97.0088 11.42 97.5501 11.42Z" fill="#CFCFCF"/>
<path d="M36.3101 12.2799C36.8513 12.2799 37.2901 11.8412 37.2901 11.2999C37.2901 10.7587 36.8513 10.3199 36.3101 10.3199C35.7688 10.3199 35.3301 10.7587 35.3301 11.2999C35.3301 11.8412 35.7688 12.2799 36.3101 12.2799Z" fill="#CFCFCF"/>
<path d="M61.3899 4.81006V9.11006" stroke="#BABABA" stroke-linecap="round" stroke-linejoin="round"/>
<path d="M59.24 6.95996H63.54" stroke="#BABABA" stroke-linecap="round" stroke-linejoin="round"/>
<path d="M16.3101 0.930054V5.23005" stroke="#BABABA" stroke-linecap="round" stroke-linejoin="round"/>
<path d="M14.1599 3.07996H18.4699" stroke="#BABABA" stroke-linecap="round" stroke-linejoin="round"/>
<path d="M29.655 136.635C29.615 136.705 29.5717 136.757 29.525 136.79C29.4817 136.82 29.4267 136.835 29.36 136.835C29.29 136.835 29.2133 136.81 29.13 136.76C29.05 136.707 28.9533 136.648 28.84 136.585C28.7267 136.522 28.5933 136.465 28.44 136.415C28.29 136.362 28.1117 136.335 27.905 136.335C27.7183 136.335 27.555 136.358 27.415 136.405C27.275 136.448 27.1567 136.51 27.06 136.59C26.9667 136.67 26.8967 136.767 26.85 136.88C26.8033 136.99 26.78 137.112 26.78 137.245C26.78 137.415 26.8267 137.557 26.92 137.67C27.0167 137.783 27.1433 137.88 27.3 137.96C27.4567 138.04 27.635 138.112 27.835 138.175C28.035 138.238 28.24 138.307 28.45 138.38C28.66 138.45 28.865 138.533 29.065 138.63C29.265 138.723 29.4433 138.843 29.6 138.99C29.7567 139.133 29.8817 139.31 29.975 139.52C30.0717 139.73 30.12 139.985 30.12 140.285C30.12 140.612 30.0633 140.918 29.95 141.205C29.84 141.488 29.6767 141.737 29.46 141.95C29.2467 142.16 28.985 142.327 28.675 142.45C28.365 142.57 28.01 142.63 27.61 142.63C27.38 142.63 27.1533 142.607 26.93 142.56C26.7067 142.517 26.4917 142.453 26.285 142.37C26.0817 142.287 25.89 142.187 25.71 142.07C25.53 141.953 25.37 141.823 25.23 141.68L25.625 141.035C25.6583 140.988 25.7017 140.95 25.755 140.92C25.8083 140.887 25.865 140.87 25.925 140.87C26.0083 140.87 26.0983 140.905 26.195 140.975C26.2917 141.042 26.4067 141.117 26.54 141.2C26.6733 141.283 26.8283 141.36 27.005 141.43C27.185 141.497 27.4 141.53 27.65 141.53C28.0333 141.53 28.33 141.44 28.54 141.26C28.75 141.077 28.855 140.815 28.855 140.475C28.855 140.285 28.8067 140.13 28.71 140.01C28.6167 139.89 28.4917 139.79 28.335 139.71C28.1783 139.627 28 139.557 27.8 139.5C27.6 139.443 27.3967 139.382 27.19 139.315C26.9833 139.248 26.78 139.168 26.58 139.075C26.38 138.982 26.2017 138.86 26.045 138.71C25.8883 138.56 25.7617 138.373 25.665 138.15C25.5717 137.923 25.525 137.645 25.525 137.315C25.525 137.052 25.5767 136.795 25.68 136.545C25.7867 136.295 25.94 136.073 26.14 135.88C26.34 135.687 26.5867 135.532 26.88 135.415C27.1733 135.298 27.51 135.24 27.89 135.24C28.3167 135.24 28.71 135.307 29.07 135.44C29.43 135.573 29.7367 135.76 29.99 136L29.655 136.635ZM34.3838 139.395C34.3838 139.235 34.3604 139.085 34.3138 138.945C34.2704 138.802 34.2038 138.677 34.1138 138.57C34.0238 138.463 33.9088 138.38 33.7688 138.32C33.6321 138.257 33.4721 138.225 33.2888 138.225C32.9321 138.225 32.6504 138.327 32.4438 138.53C32.2404 138.733 32.1104 139.022 32.0538 139.395H34.3838ZM32.0288 140.14C32.0488 140.403 32.0954 140.632 32.1688 140.825C32.2421 141.015 32.3388 141.173 32.4588 141.3C32.5788 141.423 32.7204 141.517 32.8838 141.58C33.0504 141.64 33.2338 141.67 33.4338 141.67C33.6338 141.67 33.8054 141.647 33.9488 141.6C34.0954 141.553 34.2221 141.502 34.3288 141.445C34.4388 141.388 34.5338 141.337 34.6138 141.29C34.6971 141.243 34.7771 141.22 34.8538 141.22C34.9571 141.22 35.0338 141.258 35.0838 141.335L35.4388 141.785C35.3021 141.945 35.1488 142.08 34.9788 142.19C34.8088 142.297 34.6304 142.383 34.4438 142.45C34.2604 142.513 34.0721 142.558 33.8788 142.585C33.6888 142.612 33.5038 142.625 33.3238 142.625C32.9671 142.625 32.6354 142.567 32.3288 142.45C32.0221 142.33 31.7554 142.155 31.5288 141.925C31.3021 141.692 31.1238 141.405 30.9938 141.065C30.8638 140.722 30.7987 140.325 30.7987 139.875C30.7987 139.525 30.8554 139.197 30.9688 138.89C31.0821 138.58 31.2438 138.312 31.4538 138.085C31.6671 137.855 31.9254 137.673 32.2288 137.54C32.5354 137.407 32.8804 137.34 33.2638 137.34C33.5871 137.34 33.8854 137.392 34.1588 137.495C34.4321 137.598 34.6671 137.75 34.8638 137.95C35.0604 138.147 35.2138 138.39 35.3238 138.68C35.4371 138.967 35.4937 139.295 35.4937 139.665C35.4937 139.852 35.4738 139.978 35.4338 140.045C35.3938 140.108 35.3171 140.14 35.2038 140.14H32.0288ZM36.4205 142.55V137.42H37.1755C37.3355 137.42 37.4405 137.495 37.4905 137.645L37.5705 138.025C37.6605 137.925 37.7539 137.833 37.8505 137.75C37.9505 137.667 38.0555 137.595 38.1655 137.535C38.2789 137.475 38.3989 137.428 38.5255 137.395C38.6555 137.358 38.7972 137.34 38.9505 137.34C39.2739 137.34 39.5389 137.428 39.7455 137.605C39.9555 137.778 40.1122 138.01 40.2155 138.3C40.2955 138.13 40.3955 137.985 40.5155 137.865C40.6355 137.742 40.7672 137.642 40.9105 137.565C41.0539 137.488 41.2055 137.432 41.3655 137.395C41.5289 137.358 41.6922 137.34 41.8555 137.34C42.1389 137.34 42.3905 137.383 42.6105 137.47C42.8305 137.557 43.0155 137.683 43.1655 137.85C43.3155 138.017 43.4289 138.22 43.5055 138.46C43.5855 138.7 43.6255 138.975 43.6255 139.285V142.55H42.3905V139.285C42.3905 138.958 42.3189 138.713 42.1755 138.55C42.0322 138.383 41.8222 138.3 41.5455 138.3C41.4189 138.3 41.3005 138.322 41.1905 138.365C41.0839 138.408 40.9889 138.472 40.9055 138.555C40.8255 138.635 40.7622 138.737 40.7155 138.86C40.6689 138.983 40.6455 139.125 40.6455 139.285V142.55H39.4055V139.285C39.4055 138.942 39.3355 138.692 39.1955 138.535C39.0589 138.378 38.8572 138.3 38.5905 138.3C38.4105 138.3 38.2422 138.345 38.0855 138.435C37.9322 138.522 37.7889 138.642 37.6555 138.795V142.55H36.4205ZM49.9411 140.36C49.5844 140.377 49.2844 140.408 49.0411 140.455C48.7978 140.498 48.6028 140.555 48.4561 140.625C48.3094 140.695 48.2044 140.777 48.1411 140.87C48.0778 140.963 48.0461 141.065 48.0461 141.175C48.0461 141.392 48.1094 141.547 48.2361 141.64C48.3661 141.733 48.5344 141.78 48.7411 141.78C48.9944 141.78 49.2128 141.735 49.3961 141.645C49.5828 141.552 49.7644 141.412 49.9411 141.225V140.36ZM47.1111 138.135C47.7011 137.595 48.4111 137.325 49.2411 137.325C49.5411 137.325 49.8094 137.375 50.0461 137.475C50.2828 137.572 50.4828 137.708 50.6461 137.885C50.8094 138.058 50.9328 138.267 51.0161 138.51C51.1028 138.753 51.1461 139.02 51.1461 139.31V142.55H50.5861C50.4694 142.55 50.3794 142.533 50.3161 142.5C50.2528 142.463 50.2028 142.392 50.1661 142.285L50.0561 141.915C49.9261 142.032 49.7994 142.135 49.6761 142.225C49.5528 142.312 49.4244 142.385 49.2911 142.445C49.1578 142.505 49.0144 142.55 48.8611 142.58C48.7111 142.613 48.5444 142.63 48.3611 142.63C48.1444 142.63 47.9444 142.602 47.7611 142.545C47.5778 142.485 47.4194 142.397 47.2861 142.28C47.1528 142.163 47.0494 142.018 46.9761 141.845C46.9028 141.672 46.8661 141.47 46.8661 141.24C46.8661 141.11 46.8878 140.982 46.9311 140.855C46.9744 140.725 47.0444 140.602 47.1411 140.485C47.2411 140.368 47.3694 140.258 47.5261 140.155C47.6828 140.052 47.8744 139.962 48.1011 139.885C48.3311 139.808 48.5978 139.747 48.9011 139.7C49.2044 139.65 49.5511 139.62 49.9411 139.61V139.31C49.9411 138.967 49.8678 138.713 49.7211 138.55C49.5744 138.383 49.3628 138.3 49.0861 138.3C48.8861 138.3 48.7194 138.323 48.5861 138.37C48.4561 138.417 48.3411 138.47 48.2411 138.53C48.1411 138.587 48.0494 138.638 47.9661 138.685C47.8861 138.732 47.7961 138.755 47.6961 138.755C47.6094 138.755 47.5361 138.733 47.4761 138.69C47.4161 138.643 47.3678 138.59 47.3311 138.53L47.1111 138.135ZM54.1842 139.86C54.3376 139.86 54.4709 139.84 54.5842 139.8C54.6976 139.757 54.7909 139.698 54.8642 139.625C54.9409 139.552 54.9976 139.463 55.0342 139.36C55.0742 139.257 55.0942 139.143 55.0942 139.02C55.0942 138.767 55.0176 138.567 54.8642 138.42C54.7142 138.27 54.4876 138.195 54.1842 138.195C53.8809 138.195 53.6526 138.27 53.4992 138.42C53.3492 138.567 53.2742 138.767 53.2742 139.02C53.2742 139.14 53.2926 139.252 53.3292 139.355C53.3692 139.458 53.4259 139.548 53.4992 139.625C53.5759 139.698 53.6709 139.757 53.7842 139.8C53.9009 139.84 54.0342 139.86 54.1842 139.86ZM55.5792 142.78C55.5792 142.68 55.5492 142.598 55.4892 142.535C55.4292 142.472 55.3476 142.423 55.2442 142.39C55.1409 142.353 55.0192 142.327 54.8792 142.31C54.7426 142.293 54.5959 142.282 54.4392 142.275C54.2859 142.265 54.1259 142.257 53.9592 142.25C53.7959 142.243 53.6359 142.23 53.4792 142.21C53.3426 142.287 53.2309 142.377 53.1442 142.48C53.0609 142.583 53.0192 142.703 53.0192 142.84C53.0192 142.93 53.0409 143.013 53.0842 143.09C53.1309 143.17 53.2026 143.238 53.2992 143.295C53.3992 143.352 53.5276 143.395 53.6842 143.425C53.8409 143.458 54.0326 143.475 54.2592 143.475C54.4892 143.475 54.6876 143.457 54.8542 143.42C55.0209 143.387 55.1576 143.338 55.2642 143.275C55.3742 143.215 55.4542 143.142 55.5042 143.055C55.5542 142.972 55.5792 142.88 55.5792 142.78ZM56.8092 137.595V138.055C56.8092 138.202 56.7209 138.292 56.5442 138.325L56.0842 138.41C56.1542 138.587 56.1892 138.78 56.1892 138.99C56.1892 139.243 56.1376 139.473 56.0342 139.68C55.9342 139.883 55.7942 140.057 55.6142 140.2C55.4342 140.343 55.2209 140.455 54.9742 140.535C54.7309 140.612 54.4676 140.65 54.1842 140.65C54.0842 140.65 53.9876 140.645 53.8942 140.635C53.8009 140.625 53.7092 140.612 53.6192 140.595C53.4592 140.692 53.3792 140.8 53.3792 140.92C53.3792 141.023 53.4259 141.1 53.5192 141.15C53.6159 141.197 53.7426 141.23 53.8992 141.25C54.0559 141.27 54.2342 141.283 54.4342 141.29C54.6342 141.293 54.8392 141.303 55.0492 141.32C55.2592 141.337 55.4642 141.367 55.6642 141.41C55.8642 141.45 56.0426 141.515 56.1992 141.605C56.3559 141.695 56.4809 141.818 56.5742 141.975C56.6709 142.128 56.7192 142.327 56.7192 142.57C56.7192 142.797 56.6626 143.017 56.5492 143.23C56.4392 143.443 56.2776 143.633 56.0642 143.8C55.8542 143.967 55.5942 144.1 55.2842 144.2C54.9776 144.303 54.6276 144.355 54.2342 144.355C53.8476 144.355 53.5109 144.317 53.2242 144.24C52.9376 144.167 52.6992 144.067 52.5092 143.94C52.3192 143.817 52.1776 143.673 52.0842 143.51C51.9909 143.347 51.9442 143.177 51.9442 143C51.9442 142.76 52.0159 142.56 52.1592 142.4C52.3059 142.237 52.5059 142.107 52.7592 142.01C52.6226 141.94 52.5142 141.847 52.4342 141.73C52.3542 141.613 52.3142 141.46 52.3142 141.27C52.3142 141.193 52.3276 141.115 52.3542 141.035C52.3842 140.952 52.4259 140.87 52.4792 140.79C52.5359 140.71 52.6059 140.635 52.6892 140.565C52.7726 140.492 52.8709 140.427 52.9842 140.37C52.7242 140.23 52.5192 140.043 52.3692 139.81C52.2226 139.577 52.1492 139.303 52.1492 138.99C52.1492 138.737 52.1992 138.508 52.2992 138.305C52.4026 138.098 52.5442 137.923 52.7242 137.78C52.9076 137.633 53.1226 137.522 53.3692 137.445C53.6192 137.368 53.8909 137.33 54.1842 137.33C54.4042 137.33 54.6109 137.353 54.8042 137.4C54.9976 137.443 55.1742 137.508 55.3342 137.595H56.8092ZM60.8095 139.395C60.8095 139.235 60.7862 139.085 60.7395 138.945C60.6962 138.802 60.6295 138.677 60.5395 138.57C60.4495 138.463 60.3345 138.38 60.1945 138.32C60.0579 138.257 59.8979 138.225 59.7145 138.225C59.3579 138.225 59.0762 138.327 58.8695 138.53C58.6662 138.733 58.5362 139.022 58.4795 139.395H60.8095ZM58.4545 140.14C58.4745 140.403 58.5212 140.632 58.5945 140.825C58.6679 141.015 58.7645 141.173 58.8845 141.3C59.0045 141.423 59.1462 141.517 59.3095 141.58C59.4762 141.64 59.6595 141.67 59.8595 141.67C60.0595 141.67 60.2312 141.647 60.3745 141.6C60.5212 141.553 60.6479 141.502 60.7545 141.445C60.8645 141.388 60.9595 141.337 61.0395 141.29C61.1229 141.243 61.2029 141.22 61.2795 141.22C61.3829 141.22 61.4595 141.258 61.5095 141.335L61.8645 141.785C61.7279 141.945 61.5745 142.08 61.4045 142.19C61.2345 142.297 61.0562 142.383 60.8695 142.45C60.6862 142.513 60.4979 142.558 60.3045 142.585C60.1145 142.612 59.9295 142.625 59.7495 142.625C59.3929 142.625 59.0612 142.567 58.7545 142.45C58.4479 142.33 58.1812 142.155 57.9545 141.925C57.7279 141.692 57.5495 141.405 57.4195 141.065C57.2895 140.722 57.2245 140.325 57.2245 139.875C57.2245 139.525 57.2812 139.197 57.3945 138.89C57.5079 138.58 57.6695 138.312 57.8795 138.085C58.0929 137.855 58.3512 137.673 58.6545 137.54C58.9612 137.407 59.3062 137.34 59.6895 137.34C60.0129 137.34 60.3112 137.392 60.5845 137.495C60.8579 137.598 61.0929 137.75 61.2895 137.95C61.4862 138.147 61.6395 138.39 61.7495 138.68C61.8629 138.967 61.9195 139.295 61.9195 139.665C61.9195 139.852 61.8995 139.978 61.8595 140.045C61.8195 140.108 61.7429 140.14 61.6295 140.14H58.4545ZM64.0013 138.05C64.1047 137.947 64.213 137.852 64.3263 137.765C64.443 137.675 64.5647 137.6 64.6913 137.54C64.8213 137.477 64.9597 137.428 65.1063 137.395C65.253 137.358 65.413 137.34 65.5863 137.34C65.8663 137.34 66.1147 137.388 66.3313 137.485C66.548 137.578 66.728 137.712 66.8713 137.885C67.018 138.055 67.128 138.26 67.2013 138.5C67.278 138.737 67.3163 138.998 67.3163 139.285V142.55H66.0813V139.285C66.0813 138.972 66.0097 138.73 65.8663 138.56C65.723 138.387 65.5047 138.3 65.2113 138.3C64.998 138.3 64.798 138.348 64.6113 138.445C64.4247 138.542 64.248 138.673 64.0813 138.84V142.55H62.8463V137.42H63.6013C63.7613 137.42 63.8663 137.495 63.9163 137.645L64.0013 138.05ZM71.7109 138.73C71.5709 138.56 71.4175 138.44 71.2509 138.37C71.0875 138.3 70.9109 138.265 70.7209 138.265C70.5342 138.265 70.3659 138.3 70.2159 138.37C70.0659 138.44 69.9375 138.547 69.8309 138.69C69.7242 138.83 69.6425 139.01 69.5859 139.23C69.5292 139.447 69.5009 139.703 69.5009 140C69.5009 140.3 69.5242 140.555 69.5709 140.765C69.6209 140.972 69.6909 141.142 69.7809 141.275C69.8709 141.405 69.9809 141.5 70.1109 141.56C70.2409 141.617 70.3859 141.645 70.5459 141.645C70.8025 141.645 71.0209 141.592 71.2009 141.485C71.3809 141.378 71.5509 141.227 71.7109 141.03V138.73ZM72.9459 135.12V142.55H72.1909C72.0275 142.55 71.9242 142.475 71.8809 142.325L71.7759 141.83C71.5692 142.067 71.3309 142.258 71.0609 142.405C70.7942 142.552 70.4825 142.625 70.1259 142.625C69.8459 142.625 69.5892 142.567 69.3559 142.45C69.1225 142.333 68.9209 142.165 68.7509 141.945C68.5842 141.722 68.4542 141.447 68.3609 141.12C68.2709 140.793 68.2259 140.42 68.2259 140C68.2259 139.62 68.2775 139.267 68.3809 138.94C68.4842 138.613 68.6325 138.33 68.8259 138.09C69.0192 137.85 69.2509 137.663 69.5209 137.53C69.7909 137.393 70.0942 137.325 70.4309 137.325C70.7175 137.325 70.9625 137.37 71.1659 137.46C71.3692 137.55 71.5509 137.672 71.7109 137.825V135.12H72.9459ZM76.8747 140.36C76.518 140.377 76.218 140.408 75.9747 140.455C75.7314 140.498 75.5364 140.555 75.3897 140.625C75.243 140.695 75.138 140.777 75.0747 140.87C75.0114 140.963 74.9797 141.065 74.9797 141.175C74.9797 141.392 75.043 141.547 75.1697 141.64C75.2997 141.733 75.468 141.78 75.6747 141.78C75.928 141.78 76.1464 141.735 76.3297 141.645C76.5164 141.552 76.698 141.412 76.8747 141.225V140.36ZM74.0447 138.135C74.6347 137.595 75.3447 137.325 76.1747 137.325C76.4747 137.325 76.743 137.375 76.9797 137.475C77.2164 137.572 77.4164 137.708 77.5797 137.885C77.743 138.058 77.8664 138.267 77.9497 138.51C78.0364 138.753 78.0797 139.02 78.0797 139.31V142.55H77.5197C77.403 142.55 77.313 142.533 77.2497 142.5C77.1864 142.463 77.1364 142.392 77.0997 142.285L76.9897 141.915C76.8597 142.032 76.733 142.135 76.6097 142.225C76.4864 142.312 76.358 142.385 76.2247 142.445C76.0914 142.505 75.948 142.55 75.7947 142.58C75.6447 142.613 75.478 142.63 75.2947 142.63C75.078 142.63 74.878 142.602 74.6947 142.545C74.5114 142.485 74.353 142.397 74.2197 142.28C74.0864 142.163 73.983 142.018 73.9097 141.845C73.8364 141.672 73.7997 141.47 73.7997 141.24C73.7997 141.11 73.8214 140.982 73.8647 140.855C73.908 140.725 73.978 140.602 74.0747 140.485C74.1747 140.368 74.303 140.258 74.4597 140.155C74.6164 140.052 74.808 139.962 75.0347 139.885C75.2647 139.808 75.5314 139.747 75.8347 139.7C76.138 139.65 76.4847 139.62 76.8747 139.61V139.31C76.8747 138.967 76.8014 138.713 76.6547 138.55C76.508 138.383 76.2964 138.3 76.0197 138.3C75.8197 138.3 75.653 138.323 75.5197 138.37C75.3897 138.417 75.2747 138.47 75.1747 138.53C75.0747 138.587 74.983 138.638 74.8997 138.685C74.8197 138.732 74.7297 138.755 74.6297 138.755C74.543 138.755 74.4697 138.733 74.4097 138.69C74.3497 138.643 74.3014 138.59 74.2647 138.53L74.0447 138.135ZM79.2428 142.55V137.42H79.9978C80.1578 137.42 80.2628 137.495 80.3128 137.645L80.3928 138.025C80.4828 137.925 80.5761 137.833 80.6728 137.75C80.7728 137.667 80.8778 137.595 80.9878 137.535C81.1011 137.475 81.2211 137.428 81.3478 137.395C81.4778 137.358 81.6195 137.34 81.7728 137.34C82.0961 137.34 82.3611 137.428 82.5678 137.605C82.7778 137.778 82.9345 138.01 83.0378 138.3C83.1178 138.13 83.2178 137.985 83.3378 137.865C83.4578 137.742 83.5895 137.642 83.7328 137.565C83.8761 137.488 84.0278 137.432 84.1878 137.395C84.3511 137.358 84.5145 137.34 84.6778 137.34C84.9611 137.34 85.2128 137.383 85.4328 137.47C85.6528 137.557 85.8378 137.683 85.9878 137.85C86.1378 138.017 86.2511 138.22 86.3278 138.46C86.4078 138.7 86.4478 138.975 86.4478 139.285V142.55H85.2128V139.285C85.2128 138.958 85.1411 138.713 84.9978 138.55C84.8545 138.383 84.6445 138.3 84.3678 138.3C84.2411 138.3 84.1228 138.322 84.0128 138.365C83.9061 138.408 83.8111 138.472 83.7278 138.555C83.6478 138.635 83.5845 138.737 83.5378 138.86C83.4911 138.983 83.4678 139.125 83.4678 139.285V142.55H82.2278V139.285C82.2278 138.942 82.1578 138.692 82.0178 138.535C81.8811 138.378 81.6795 138.3 81.4128 138.3C81.2328 138.3 81.0645 138.345 80.9078 138.435C80.7545 138.522 80.6111 138.642 80.4778 138.795V142.55H79.2428ZM90.9267 139.395C90.9267 139.235 90.9034 139.085 90.8567 138.945C90.8134 138.802 90.7467 138.677 90.6567 138.57C90.5667 138.463 90.4517 138.38 90.3117 138.32C90.1751 138.257 90.0151 138.225 89.8317 138.225C89.4751 138.225 89.1934 138.327 88.9867 138.53C88.7834 138.733 88.6534 139.022 88.5967 139.395H90.9267ZM88.5717 140.14C88.5917 140.403 88.6384 140.632 88.7117 140.825C88.7851 141.015 88.8817 141.173 89.0017 141.3C89.1217 141.423 89.2634 141.517 89.4267 141.58C89.5934 141.64 89.7767 141.67 89.9767 141.67C90.1767 141.67 90.3484 141.647 90.4917 141.6C90.6384 141.553 90.7651 141.502 90.8717 141.445C90.9817 141.388 91.0767 141.337 91.1567 141.29C91.2401 141.243 91.3201 141.22 91.3967 141.22C91.5001 141.22 91.5767 141.258 91.6267 141.335L91.9817 141.785C91.8451 141.945 91.6917 142.08 91.5217 142.19C91.3517 142.297 91.1734 142.383 90.9867 142.45C90.8034 142.513 90.6151 142.558 90.4217 142.585C90.2317 142.612 90.0467 142.625 89.8667 142.625C89.5101 142.625 89.1784 142.567 88.8717 142.45C88.5651 142.33 88.2984 142.155 88.0717 141.925C87.8451 141.692 87.6667 141.405 87.5367 141.065C87.4067 140.722 87.3417 140.325 87.3417 139.875C87.3417 139.525 87.3984 139.197 87.5117 138.89C87.6251 138.58 87.7867 138.312 87.9967 138.085C88.2101 137.855 88.4684 137.673 88.7717 137.54C89.0784 137.407 89.4234 137.34 89.8067 137.34C90.1301 137.34 90.4284 137.392 90.7017 137.495C90.9751 137.598 91.2101 137.75 91.4067 137.95C91.6034 138.147 91.7567 138.39 91.8667 138.68C91.9801 138.967 92.0367 139.295 92.0367 139.665C92.0367 139.852 92.0167 139.978 91.9767 140.045C91.9367 140.108 91.8601 140.14 91.7467 140.14H88.5717ZM94.1185 138.05C94.2218 137.947 94.3302 137.852 94.4435 137.765C94.5602 137.675 94.6818 137.6 94.8085 137.54C94.9385 137.477 95.0768 137.428 95.2235 137.395C95.3702 137.358 95.5302 137.34 95.7035 137.34C95.9835 137.34 96.2318 137.388 96.4485 137.485C96.6652 137.578 96.8452 137.712 96.9885 137.885C97.1352 138.055 97.2452 138.26 97.3185 138.5C97.3952 138.737 97.4335 138.998 97.4335 139.285V142.55H96.1985V139.285C96.1985 138.972 96.1268 138.73 95.9835 138.56C95.8402 138.387 95.6218 138.3 95.3285 138.3C95.1152 138.3 94.9152 138.348 94.7285 138.445C94.5418 138.542 94.3652 138.673 94.1985 138.84V142.55H92.9635V137.42H93.7185C93.8785 137.42 93.9835 137.495 94.0335 137.645L94.1185 138.05ZM100.25 142.63C99.803 142.63 99.4597 142.505 99.2197 142.255C98.983 142.002 98.8647 141.653 98.8647 141.21V138.345H98.3397C98.273 138.345 98.2164 138.323 98.1697 138.28C98.123 138.237 98.0997 138.172 98.0997 138.085V137.595L98.9247 137.46L99.1847 136.06C99.2014 135.993 99.233 135.942 99.2797 135.905C99.3264 135.868 99.3864 135.85 99.4597 135.85H100.1V137.465H101.47V138.345H100.1V141.125C100.1 141.285 100.138 141.41 100.215 141.5C100.295 141.59 100.403 141.635 100.54 141.635C100.616 141.635 100.68 141.627 100.73 141.61C100.783 141.59 100.828 141.57 100.865 141.55C100.905 141.53 100.94 141.512 100.97 141.495C101 141.475 101.03 141.465 101.06 141.465C101.096 141.465 101.126 141.475 101.15 141.495C101.173 141.512 101.198 141.538 101.225 141.575L101.595 142.175C101.415 142.325 101.208 142.438 100.975 142.515C100.741 142.592 100.5 142.63 100.25 142.63ZM104.491 137.34C104.871 137.34 105.216 137.402 105.526 137.525C105.84 137.648 106.106 137.823 106.326 138.05C106.55 138.277 106.721 138.553 106.841 138.88C106.961 139.207 107.021 139.572 107.021 139.975C107.021 140.382 106.961 140.748 106.841 141.075C106.721 141.402 106.55 141.68 106.326 141.91C106.106 142.14 105.84 142.317 105.526 142.44C105.216 142.563 104.871 142.625 104.491 142.625C104.108 142.625 103.76 142.563 103.446 142.44C103.133 142.317 102.865 142.14 102.641 141.91C102.421 141.68 102.25 141.402 102.126 141.075C102.006 140.748 101.946 140.382 101.946 139.975C101.946 139.572 102.006 139.207 102.126 138.88C102.25 138.553 102.421 138.277 102.641 138.05C102.865 137.823 103.133 137.648 103.446 137.525C103.76 137.402 104.108 137.34 104.491 137.34ZM104.491 141.675C104.918 141.675 105.233 141.532 105.436 141.245C105.643 140.958 105.746 140.538 105.746 139.985C105.746 139.432 105.643 139.01 105.436 138.72C105.233 138.43 104.918 138.285 104.491 138.285C104.058 138.285 103.736 138.432 103.526 138.725C103.32 139.015 103.216 139.435 103.216 139.985C103.216 140.535 103.32 140.955 103.526 141.245C103.736 141.532 104.058 141.675 104.491 141.675Z" fill="#939090"/>
<path d="M0.825284 150.639L2.33665 154.925H2.39631L3.90767 150.639H4.55398L2.68466 155.73H2.0483L0.178977 150.639H0.825284ZM6.46307 155.81C6.11837 155.81 5.81593 155.727 5.55575 155.563C5.29723 155.399 5.09505 155.17 4.94922 154.875C4.80504 154.58 4.73295 154.235 4.73295 153.841C4.73295 153.443 4.80504 153.096 4.94922 152.799C5.09505 152.503 5.29723 152.272 5.55575 152.108C5.81593 151.944 6.11837 151.862 6.46307 151.862C6.80777 151.862 7.10938 151.944 7.3679 152.108C7.62808 152.272 7.83026 152.503 7.97443 152.799C8.12027 153.096 8.19318 153.443 8.19318 153.841C8.19318 154.235 8.12027 154.58 7.97443 154.875C7.83026 155.17 7.62808 155.399 7.3679 155.563C7.10938 155.727 6.80777 155.81 6.46307 155.81ZM6.46307 155.283C6.72491 155.283 6.94034 155.215 7.10938 155.081C7.27841 154.947 7.40353 154.77 7.48473 154.552C7.56593 154.333 7.60653 154.096 7.60653 153.841C7.60653 153.586 7.56593 153.348 7.48473 153.127C7.40353 152.907 7.27841 152.729 7.10938 152.593C6.94034 152.457 6.72491 152.389 6.46307 152.389C6.20123 152.389 5.9858 152.457 5.81676 152.593C5.64773 152.729 5.52261 152.907 5.44141 153.127C5.3602 153.348 5.3196 153.586 5.3196 153.841C5.3196 154.096 5.3602 154.333 5.44141 154.552C5.52261 154.77 5.64773 154.947 5.81676 155.081C5.9858 155.215 6.20123 155.283 6.46307 155.283ZM10.6398 155.81C10.2819 155.81 9.97363 155.725 9.71511 155.556C9.45659 155.387 9.25772 155.154 9.11852 154.857C8.97931 154.561 8.90971 154.222 8.90971 153.841C8.90971 153.453 8.98097 153.111 9.12349 152.814C9.26767 152.516 9.46819 152.283 9.72505 152.116C9.98358 151.947 10.2852 151.862 10.6299 151.862C10.8983 151.862 11.1403 151.912 11.3557 152.011C11.5712 152.111 11.7477 152.25 11.8852 152.429C12.0228 152.608 12.1081 152.817 12.1412 153.055H11.5546C11.5099 152.881 11.4104 152.727 11.2563 152.593C11.1038 152.457 10.8983 152.389 10.6398 152.389C10.4111 152.389 10.2106 152.449 10.0383 152.568C9.86757 152.686 9.73417 152.852 9.63805 153.068C9.54359 153.281 9.49636 153.533 9.49636 153.821C9.49636 154.116 9.54276 154.373 9.63556 154.591C9.73002 154.81 9.8626 154.98 10.0333 155.101C10.2056 155.222 10.4078 155.283 10.6398 155.283C10.7923 155.283 10.9307 155.256 11.055 155.203C11.1792 155.15 11.2845 155.074 11.3706 154.974C11.4568 154.875 11.5181 154.756 11.5546 154.616H12.1412C12.1081 154.842 12.0261 155.045 11.8952 155.225C11.7659 155.404 11.5944 155.547 11.3806 155.653C11.1685 155.757 10.9215 155.81 10.6398 155.81ZM14.5997 155.81C14.2318 155.81 13.9144 155.728 13.6476 155.566C13.3825 155.402 13.1778 155.173 13.0336 154.88C12.8911 154.585 12.8199 154.242 12.8199 153.851C12.8199 153.46 12.8911 153.115 13.0336 152.817C13.1778 152.517 13.3783 152.283 13.6352 152.116C13.8937 151.947 14.1953 151.862 14.54 151.862C14.7389 151.862 14.9353 151.895 15.1292 151.962C15.3231 152.028 15.4996 152.136 15.6586 152.285C15.8177 152.432 15.9445 152.628 16.039 152.871C16.1334 153.115 16.1807 153.415 16.1807 153.771V154.02H13.2375V153.513H15.5841C15.5841 153.297 15.541 153.105 15.4548 152.936C15.3703 152.767 15.2493 152.634 15.0919 152.536C14.9361 152.438 14.7522 152.389 14.54 152.389C14.3064 152.389 14.1042 152.447 13.9335 152.563C13.7645 152.677 13.6344 152.827 13.5432 153.011C13.4521 153.194 13.4065 153.392 13.4065 153.602V153.94C13.4065 154.229 13.4562 154.473 13.5557 154.674C13.6568 154.872 13.7968 155.024 13.9758 155.128C14.1547 155.231 14.3627 155.283 14.5997 155.283C14.7538 155.283 14.893 155.261 15.0173 155.218C15.1433 155.173 15.2518 155.107 15.343 155.019C15.4341 154.93 15.5045 154.819 15.5542 154.686L16.121 154.845C16.0613 155.037 15.9611 155.206 15.8202 155.352C15.6794 155.496 15.5054 155.609 15.2982 155.69C15.0911 155.77 14.8582 155.81 14.5997 155.81ZM15.0273 151.454L14.5102 150.758L13.9932 151.454H13.4363V151.415L14.2417 150.381H14.7787L15.5841 151.415V151.454H15.0273ZM20.1654 155.819C19.9234 155.819 19.7039 155.774 19.5067 155.683C19.3095 155.59 19.1528 155.457 19.0368 155.283C18.9208 155.107 18.8628 154.895 18.8628 154.646C18.8628 154.427 18.9059 154.25 18.9921 154.114C19.0783 153.977 19.1934 153.869 19.3376 153.791C19.4818 153.713 19.6409 153.655 19.8149 153.617C19.9906 153.577 20.1671 153.546 20.3444 153.523C20.5764 153.493 20.7645 153.47 20.9086 153.455C21.0545 153.439 21.1605 153.412 21.2268 153.373C21.2948 153.335 21.3287 153.269 21.3287 153.175V153.155C21.3287 152.909 21.2616 152.719 21.1274 152.583C20.9948 152.447 20.7935 152.379 20.5233 152.379C20.2433 152.379 20.0237 152.44 19.8646 152.563C19.7055 152.686 19.5937 152.817 19.529 152.956L18.9722 152.757C19.0716 152.525 19.2042 152.344 19.3699 152.215C19.5373 152.084 19.7196 151.993 19.9168 151.942C20.1157 151.889 20.3112 151.862 20.5035 151.862C20.6261 151.862 20.767 151.877 20.926 151.907C21.0868 151.935 21.2417 151.994 21.3909 152.083C21.5417 152.173 21.6668 152.308 21.7662 152.489C21.8657 152.669 21.9154 152.911 21.9154 153.214V155.73H21.3287V155.213H21.2989C21.2591 155.296 21.1929 155.384 21.1001 155.479C21.0073 155.573 20.8838 155.654 20.7297 155.72C20.5756 155.786 20.3875 155.819 20.1654 155.819ZM20.2549 155.292C20.4869 155.292 20.6824 155.247 20.8415 155.156C21.0023 155.065 21.1233 154.947 21.2045 154.803C21.2873 154.659 21.3287 154.507 21.3287 154.348V153.811C21.3039 153.841 21.2492 153.868 21.1647 153.893C21.0818 153.916 20.9857 153.937 20.8763 153.955C20.7686 153.972 20.6634 153.987 20.5606 154C20.4595 154.011 20.3775 154.021 20.3145 154.03C20.1621 154.05 20.0196 154.082 19.887 154.127C19.7561 154.17 19.65 154.235 19.5688 154.323C19.4893 154.409 19.4495 154.527 19.4495 154.676C19.4495 154.88 19.5249 155.034 19.6757 155.138C19.8282 155.241 20.0212 155.292 20.2549 155.292ZM22.9862 155.73V151.912H23.5728V155.73H22.9862ZM23.2844 151.275C23.1701 151.275 23.0715 151.236 22.9886 151.159C22.9074 151.081 22.8668 150.987 22.8668 150.878C22.8668 150.768 22.9074 150.675 22.9886 150.597C23.0715 150.519 23.1701 150.48 23.2844 150.48C23.3988 150.48 23.4966 150.519 23.5778 150.597C23.6606 150.675 23.7021 150.768 23.7021 150.878C23.7021 150.987 23.6606 151.081 23.5778 151.159C23.4966 151.236 23.3988 151.275 23.2844 151.275ZM25.2339 153.433V155.73H24.6473V151.912H25.214V152.508H25.2638C25.3532 152.314 25.4891 152.159 25.6714 152.041C25.8537 151.922 26.089 151.862 26.3774 151.862C26.6359 151.862 26.8621 151.915 27.056 152.021C27.2499 152.126 27.4007 152.285 27.5084 152.498C27.6162 152.711 27.67 152.979 27.67 153.304V155.73H27.0834V153.344C27.0834 153.044 27.0055 152.81 26.8497 152.643C26.6939 152.474 26.4801 152.389 26.2084 152.389C26.0211 152.389 25.8537 152.43 25.7062 152.511C25.5604 152.592 25.4452 152.711 25.3607 152.866C25.2762 153.022 25.2339 153.211 25.2339 153.433ZM30.1838 155.81C29.8656 155.81 29.5847 155.729 29.3411 155.568C29.0975 155.406 28.9069 155.177 28.7694 154.882C28.6318 154.586 28.563 154.235 28.563 153.831C28.563 153.43 28.6318 153.082 28.7694 152.787C28.9069 152.492 29.0983 152.264 29.3436 152.103C29.5888 151.942 29.8722 151.862 30.1937 151.862C30.4423 151.862 30.6387 151.904 30.7828 151.986C30.9287 152.068 31.0397 152.16 31.1159 152.265C31.1938 152.368 31.2543 152.452 31.2974 152.518H31.3471V150.639H31.9338V155.73H31.367V155.143H31.2974C31.2543 155.213 31.193 155.301 31.1135 155.407C31.0339 155.511 30.9204 155.605 30.7729 155.688C30.6254 155.769 30.429 155.81 30.1838 155.81ZM30.2633 155.283C30.4986 155.283 30.6975 155.221 30.8599 155.099C31.0223 154.974 31.1458 154.803 31.2303 154.584C31.3148 154.364 31.3571 154.109 31.3571 153.821C31.3571 153.536 31.3156 153.286 31.2328 153.073C31.1499 152.857 31.0273 152.69 30.8649 152.571C30.7025 152.45 30.502 152.389 30.2633 152.389C30.0147 152.389 29.8076 152.453 29.6419 152.58C29.4778 152.706 29.3543 152.878 29.2715 153.095C29.1903 153.31 29.1497 153.552 29.1497 153.821C29.1497 154.093 29.1911 154.34 29.274 154.562C29.3585 154.782 29.4828 154.958 29.6468 155.089C29.8126 155.218 30.0181 155.283 30.2633 155.283ZM34.2132 155.819C33.9713 155.819 33.7517 155.774 33.5545 155.683C33.3573 155.59 33.2007 155.457 33.0847 155.283C32.9687 155.107 32.9107 154.895 32.9107 154.646C32.9107 154.427 32.9538 154.25 33.04 154.114C33.1261 153.977 33.2413 153.869 33.3855 153.791C33.5297 153.713 33.6887 153.655 33.8627 153.617C34.0384 153.577 34.2149 153.546 34.3922 153.523C34.6242 153.493 34.8123 153.47 34.9565 153.455C35.1023 153.439 35.2084 153.412 35.2747 153.373C35.3426 153.335 35.3766 153.269 35.3766 153.175V153.155C35.3766 152.909 35.3095 152.719 35.1752 152.583C35.0427 152.447 34.8413 152.379 34.5712 152.379C34.2911 152.379 34.0716 152.44 33.9125 152.563C33.7534 152.686 33.6415 152.817 33.5769 152.956L33.0201 152.757C33.1195 152.525 33.2521 152.344 33.4178 152.215C33.5852 152.084 33.7675 151.993 33.9647 151.942C34.1635 151.889 34.3591 151.862 34.5513 151.862C34.6739 151.862 34.8148 151.877 34.9739 151.907C35.1346 151.935 35.2896 151.994 35.4387 152.083C35.5895 152.173 35.7147 152.308 35.8141 152.489C35.9135 152.669 35.9632 152.911 35.9632 153.214V155.73H35.3766V155.213H35.3468C35.307 155.296 35.2407 155.384 35.1479 155.479C35.0551 155.573 34.9316 155.654 34.7775 155.72C34.6234 155.786 34.4353 155.819 34.2132 155.819ZM34.3027 155.292C34.5347 155.292 34.7303 155.247 34.8894 155.156C35.0501 155.065 35.1711 154.947 35.2523 154.803C35.3352 154.659 35.3766 154.507 35.3766 154.348V153.811C35.3517 153.841 35.2971 153.868 35.2125 153.893C35.1297 153.916 35.0336 153.937 34.9242 153.955C34.8165 153.972 34.7112 153.987 34.6085 154C34.5074 154.011 34.4254 154.021 34.3624 154.03C34.2099 154.05 34.0674 154.082 33.9348 154.127C33.8039 154.17 33.6979 154.235 33.6167 154.323C33.5371 154.409 33.4973 154.527 33.4973 154.676C33.4973 154.88 33.5727 155.034 33.7235 155.138C33.876 155.241 34.0691 155.292 34.3027 155.292ZM39.5894 153.433V155.73H39.0028V151.912H39.5695V152.508H39.6192C39.7087 152.314 39.8446 152.159 40.0269 152.041C40.2092 151.922 40.4445 151.862 40.7329 151.862C40.9914 151.862 41.2176 151.915 41.4115 152.021C41.6054 152.126 41.7562 152.285 41.8639 152.498C41.9716 152.711 42.0255 152.979 42.0255 153.304V155.73H41.4388V153.344C41.4388 153.044 41.3609 152.81 41.2052 152.643C41.0494 152.474 40.8356 152.389 40.5638 152.389C40.3766 152.389 40.2092 152.43 40.0617 152.511C39.9159 152.592 39.8007 152.711 39.7162 152.866C39.6317 153.022 39.5894 153.211 39.5894 153.433ZM44.2211 155.819C43.9791 155.819 43.7595 155.774 43.5623 155.683C43.3651 155.59 43.2085 155.457 43.0925 155.283C42.9765 155.107 42.9185 154.895 42.9185 154.646C42.9185 154.427 42.9616 154.25 43.0478 154.114C43.1339 153.977 43.2491 153.869 43.3933 153.791C43.5375 153.713 43.6966 153.655 43.8706 153.617C44.0462 153.577 44.2227 153.546 44.4 153.523C44.632 153.493 44.8201 153.47 44.9643 153.455C45.1101 153.439 45.2162 153.412 45.2825 153.373C45.3504 153.335 45.3844 153.269 45.3844 153.175V153.155C45.3844 152.909 45.3173 152.719 45.1831 152.583C45.0505 152.447 44.8491 152.379 44.579 152.379C44.2989 152.379 44.0794 152.44 43.9203 152.563C43.7612 152.686 43.6493 152.817 43.5847 152.956L43.0279 152.757C43.1273 152.525 43.2599 152.344 43.4256 152.215C43.593 152.084 43.7753 151.993 43.9725 151.942C44.1713 151.889 44.3669 151.862 44.5591 151.862C44.6818 151.862 44.8226 151.877 44.9817 151.907C45.1425 151.935 45.2974 151.994 45.4466 152.083C45.5974 152.173 45.7225 152.308 45.8219 152.489C45.9213 152.669 45.9711 152.911 45.9711 153.214V155.73H45.3844V155.213H45.3546C45.3148 155.296 45.2485 155.384 45.1557 155.479C45.0629 155.573 44.9395 155.654 44.7853 155.72C44.6312 155.786 44.4431 155.819 44.2211 155.819ZM44.3105 155.292C44.5426 155.292 44.7381 155.247 44.8972 155.156C45.0579 155.065 45.1789 154.947 45.2601 154.803C45.343 154.659 45.3844 154.507 45.3844 154.348V153.811C45.3596 153.841 45.3049 153.868 45.2203 153.893C45.1375 153.916 45.0414 153.937 44.932 153.955C44.8243 153.972 44.719 153.987 44.6163 154C44.5152 154.011 44.4332 154.021 44.3702 154.03C44.2177 154.05 44.0752 154.082 43.9426 154.127C43.8117 154.17 43.7057 154.235 43.6245 154.323C43.5449 154.409 43.5051 154.527 43.5051 154.676C43.5051 154.88 43.5806 155.034 43.7314 155.138C43.8838 155.241 44.0769 155.292 44.3105 155.292ZM43.8333 151.454L43.3759 151.435C43.3759 151.181 43.448 150.974 43.5922 150.813C43.738 150.651 43.9178 150.569 44.1316 150.569C44.226 150.569 44.3097 150.586 44.3826 150.619C44.4556 150.651 44.5252 150.687 44.5914 150.729C44.6577 150.77 44.7257 150.807 44.7953 150.84C44.8665 150.872 44.9469 150.888 45.0364 150.888C45.1309 150.888 45.2104 150.851 45.275 150.778C45.3413 150.704 45.3745 150.614 45.3745 150.51L45.8219 150.55C45.8219 150.808 45.749 151.014 45.6032 151.166C45.459 151.319 45.28 151.395 45.0662 151.395C44.9519 151.395 44.8574 151.379 44.7828 151.348C44.7083 151.314 44.642 151.277 44.584 151.236C44.526 151.194 44.4647 151.158 44.4 151.126C44.3354 151.093 44.2559 151.077 44.1614 151.077C44.0669 151.077 43.9882 151.114 43.9252 151.188C43.8639 151.261 43.8333 151.35 43.8333 151.454ZM48.593 155.81C48.2483 155.81 47.9458 155.727 47.6856 155.563C47.4271 155.399 47.2249 155.17 47.0791 154.875C46.9349 154.58 46.8628 154.235 46.8628 153.841C46.8628 153.443 46.9349 153.096 47.0791 152.799C47.2249 152.503 47.4271 152.272 47.6856 152.108C47.9458 151.944 48.2483 151.862 48.593 151.862C48.9376 151.862 49.2393 151.944 49.4978 152.108C49.758 152.272 49.9601 152.503 50.1043 152.799C50.2501 153.096 50.3231 153.443 50.3231 153.841C50.3231 154.235 50.2501 154.58 50.1043 154.875C49.9601 155.17 49.758 155.399 49.4978 155.563C49.2393 155.727 48.9376 155.81 48.593 155.81ZM48.593 155.283C48.8548 155.283 49.0702 155.215 49.2393 155.081C49.4083 154.947 49.5334 154.77 49.6146 154.552C49.6958 154.333 49.7364 154.096 49.7364 153.841C49.7364 153.586 49.6958 153.348 49.6146 153.127C49.5334 152.907 49.4083 152.729 49.2393 152.593C49.0702 152.457 48.8548 152.389 48.593 152.389C48.3311 152.389 48.1157 152.457 47.9466 152.593C47.7776 152.729 47.6525 152.907 47.5713 153.127C47.4901 153.348 47.4495 153.586 47.4495 153.841C47.4495 154.096 47.4901 154.333 47.5713 154.552C47.6525 154.77 47.7776 154.947 47.9466 155.081C48.1157 155.215 48.3311 155.283 48.593 155.283ZM53.1873 157.162V151.912H53.7541V152.518H53.8237C53.8668 152.452 53.9264 152.368 54.0027 152.265C54.0806 152.16 54.1916 152.068 54.3358 151.986C54.4816 151.904 54.6788 151.862 54.9274 151.862C55.2489 151.862 55.5323 151.942 55.7775 152.103C56.0228 152.264 56.2142 152.492 56.3517 152.787C56.4893 153.082 56.5581 153.43 56.5581 153.831C56.5581 154.235 56.4893 154.586 56.3517 154.882C56.2142 155.177 56.0236 155.406 55.78 155.568C55.5364 155.729 55.2555 155.81 54.9373 155.81C54.6921 155.81 54.4957 155.769 54.3482 155.688C54.2007 155.605 54.0872 155.511 54.0076 155.407C53.9281 155.301 53.8668 155.213 53.8237 155.143H53.774V157.162H53.1873ZM53.764 153.821C53.764 154.109 53.8063 154.364 53.8908 154.584C53.9753 154.803 54.0988 154.974 54.2612 155.099C54.4236 155.221 54.6225 155.283 54.8578 155.283C55.103 155.283 55.3077 155.218 55.4718 155.089C55.6375 154.958 55.7618 154.782 55.8446 154.562C55.9292 154.34 55.9714 154.093 55.9714 153.821C55.9714 153.552 55.93 153.31 55.8471 153.095C55.7659 152.878 55.6425 152.706 55.4767 152.58C55.3127 152.453 55.1064 152.389 54.8578 152.389C54.6191 152.389 54.4186 152.45 54.2562 152.571C54.0938 152.69 53.9712 152.857 53.8883 153.073C53.8055 153.286 53.764 153.536 53.764 153.821ZM59.0041 155.81C58.6594 155.81 58.3569 155.727 58.0968 155.563C57.8382 155.399 57.6361 155.17 57.4902 154.875C57.3461 154.58 57.274 154.235 57.274 153.841C57.274 153.443 57.3461 153.096 57.4902 152.799C57.6361 152.503 57.8382 152.272 58.0968 152.108C58.3569 151.944 58.6594 151.862 59.0041 151.862C59.3488 151.862 59.6504 151.944 59.9089 152.108C60.1691 152.272 60.3713 152.503 60.5154 152.799C60.6613 153.096 60.7342 153.443 60.7342 153.841C60.7342 154.235 60.6613 154.58 60.5154 154.875C60.3713 155.17 60.1691 155.399 59.9089 155.563C59.6504 155.727 59.3488 155.81 59.0041 155.81ZM59.0041 155.283C59.2659 155.283 59.4814 155.215 59.6504 155.081C59.8194 154.947 59.9445 154.77 60.0257 154.552C60.1069 154.333 60.1475 154.096 60.1475 153.841C60.1475 153.586 60.1069 153.348 60.0257 153.127C59.9445 152.907 59.8194 152.729 59.6504 152.593C59.4814 152.457 59.2659 152.389 59.0041 152.389C58.7422 152.389 58.5268 152.457 58.3578 152.593C58.1887 152.729 58.0636 152.907 57.9824 153.127C57.9012 153.348 57.8606 153.586 57.8606 153.841C57.8606 154.096 57.9012 154.333 57.9824 154.552C58.0636 154.77 58.1887 154.947 58.3578 155.081C58.5268 155.215 58.7422 155.283 59.0041 155.283ZM64.3343 152.767L63.8073 152.916C63.7741 152.828 63.7252 152.743 63.6606 152.66C63.5976 152.576 63.5115 152.506 63.4021 152.451C63.2927 152.397 63.1527 152.369 62.982 152.369C62.7483 152.369 62.5536 152.423 62.3978 152.531C62.2437 152.637 62.1666 152.772 62.1666 152.936C62.1666 153.082 62.2197 153.197 62.3257 153.281C62.4318 153.366 62.5975 153.436 62.8229 153.493L63.3896 153.632C63.731 153.715 63.9854 153.842 64.1528 154.012C64.3202 154.181 64.4039 154.399 64.4039 154.666C64.4039 154.885 64.3409 155.08 64.2149 155.253C64.0906 155.425 63.9166 155.561 63.6929 155.66C63.4692 155.76 63.209 155.81 62.9124 155.81C62.5229 155.81 62.2006 155.725 61.9454 155.556C61.6902 155.387 61.5286 155.14 61.4607 154.815L62.0175 154.676C62.0705 154.881 62.1708 155.036 62.3183 155.138C62.4674 155.241 62.6621 155.292 62.9024 155.292C63.1759 155.292 63.393 155.234 63.5537 155.118C63.7161 155.001 63.7973 154.86 63.7973 154.696C63.7973 154.563 63.7509 154.452 63.6581 154.363C63.5653 154.272 63.4228 154.204 63.2306 154.159L62.5942 154.01C62.2445 153.927 61.9877 153.799 61.8236 153.625C61.6612 153.449 61.58 153.229 61.58 152.966C61.58 152.75 61.6405 152.56 61.7615 152.394C61.8841 152.228 62.0506 152.098 62.2611 152.004C62.4732 151.909 62.7135 151.862 62.982 151.862C63.3598 151.862 63.6565 151.945 63.8719 152.111C64.089 152.276 64.2431 152.495 64.3343 152.767ZM67.9915 152.767L67.4645 152.916C67.4313 152.828 67.3825 152.743 67.3178 152.66C67.2549 152.576 67.1687 152.506 67.0593 152.451C66.9499 152.397 66.8099 152.369 66.6392 152.369C66.4055 152.369 66.2108 152.423 66.055 152.531C65.9009 152.637 65.8239 152.772 65.8239 152.936C65.8239 153.082 65.8769 153.197 65.983 153.281C66.089 153.366 66.2547 153.436 66.4801 153.493L67.0469 153.632C67.3883 153.715 67.6426 153.842 67.81 154.012C67.9774 154.181 68.0611 154.399 68.0611 154.666C68.0611 154.885 67.9981 155.08 67.8722 155.253C67.7479 155.425 67.5739 155.561 67.3501 155.66C67.1264 155.76 66.8662 155.81 66.5696 155.81C66.1802 155.81 65.8578 155.725 65.6026 155.556C65.3474 155.387 65.1858 155.14 65.1179 154.815L65.6747 154.676C65.7277 154.881 65.828 155.036 65.9755 155.138C66.1246 155.241 66.3194 155.292 66.5597 155.292C66.8331 155.292 67.0502 155.234 67.2109 155.118C67.3733 155.001 67.4545 154.86 67.4545 154.696C67.4545 154.563 67.4081 154.452 67.3153 154.363C67.2225 154.272 67.08 154.204 66.8878 154.159L66.2514 154.01C65.9018 153.927 65.6449 153.799 65.4808 153.625C65.3184 153.449 65.2372 153.229 65.2372 152.966C65.2372 152.75 65.2977 152.56 65.4187 152.394C65.5413 152.228 65.7079 152.098 65.9183 152.004C66.1304 151.909 66.3707 151.862 66.6392 151.862C67.017 151.862 67.3137 151.945 67.5291 152.111C67.7462 152.276 67.9003 152.495 67.9915 152.767ZM71.3504 154.169V151.912H71.9371V155.73H71.3504V155.084H71.3106C71.2211 155.278 71.0819 155.442 70.893 155.578C70.7041 155.713 70.4655 155.78 70.1771 155.78C69.9385 155.78 69.7264 155.727 69.5407 155.623C69.3551 155.517 69.2093 155.358 69.1032 155.146C68.9972 154.932 68.9442 154.663 68.9442 154.338V151.912H69.5308V154.298C69.5308 154.577 69.6087 154.799 69.7645 154.964C69.9219 155.13 70.1224 155.213 70.366 155.213C70.5119 155.213 70.6602 155.176 70.811 155.101C70.9635 155.027 71.0911 154.912 71.1938 154.758C71.2982 154.604 71.3504 154.408 71.3504 154.169ZM73.0115 155.73V151.912H73.5982V155.73H73.0115ZM73.3098 151.275C73.1955 151.275 73.0969 151.236 73.014 151.159C72.9328 151.081 72.8922 150.987 72.8922 150.878C72.8922 150.768 72.9328 150.675 73.014 150.597C73.0969 150.519 73.1955 150.48 73.3098 150.48C73.4242 150.48 73.522 150.519 73.6032 150.597C73.686 150.675 73.7275 150.768 73.7275 150.878C73.7275 150.987 73.686 151.081 73.6032 151.159C73.522 151.236 73.4242 151.275 73.3098 151.275ZM77.765 155.819C77.5231 155.819 77.3035 155.774 77.1063 155.683C76.9091 155.59 76.7525 155.457 76.6365 155.283C76.5204 155.107 76.4624 154.895 76.4624 154.646C76.4624 154.427 76.5055 154.25 76.5917 154.114C76.6779 153.977 76.7931 153.869 76.9372 153.791C77.0814 153.713 77.2405 153.655 77.4145 153.617C77.5902 153.577 77.7667 153.546 77.944 153.523C78.176 153.493 78.3641 153.47 78.5083 153.455C78.6541 153.439 78.7602 153.412 78.8264 153.373C78.8944 153.335 78.9284 153.269 78.9284 153.175V153.155C78.9284 152.909 78.8612 152.719 78.727 152.583C78.5944 152.447 78.3931 152.379 78.123 152.379C77.8429 152.379 77.6233 152.44 77.4642 152.563C77.3051 152.686 77.1933 152.817 77.1286 152.956L76.5718 152.757C76.6713 152.525 76.8038 152.344 76.9695 152.215C77.1369 152.084 77.3192 151.993 77.5164 151.942C77.7153 151.889 77.9108 151.862 78.1031 151.862C78.2257 151.862 78.3666 151.877 78.5257 151.907C78.6864 151.935 78.8414 151.994 78.9905 152.083C79.1413 152.173 79.2664 152.308 79.3659 152.489C79.4653 152.669 79.515 152.911 79.515 153.214V155.73H78.9284V155.213H78.8985C78.8588 155.296 78.7925 155.384 78.6997 155.479C78.6069 155.573 78.4834 155.654 78.3293 155.72C78.1752 155.786 77.9871 155.819 77.765 155.819ZM77.8545 155.292C78.0865 155.292 78.282 155.247 78.4411 155.156C78.6019 155.065 78.7229 154.947 78.8041 154.803C78.8869 154.659 78.9284 154.507 78.9284 154.348V153.811C78.9035 153.841 78.8488 153.868 78.7643 153.893C78.6814 153.916 78.5853 153.937 78.4759 153.955C78.3682 153.972 78.263 153.987 78.1602 154C78.0592 154.011 77.9771 154.021 77.9142 154.03C77.7617 154.05 77.6192 154.082 77.4866 154.127C77.3557 154.17 77.2496 154.235 77.1684 154.323C77.0889 154.409 77.0491 154.527 77.0491 154.676C77.0491 154.88 77.1245 155.034 77.2753 155.138C77.4278 155.241 77.6208 155.292 77.8545 155.292ZM82.127 157.241C81.8436 157.241 81.6 157.205 81.3961 157.132C81.1923 157.061 81.0224 156.966 80.8865 156.849C80.7523 156.733 80.6454 156.608 80.5659 156.476L81.0332 156.148C81.0862 156.217 81.1533 156.297 81.2346 156.386C81.3158 156.477 81.4268 156.556 81.5676 156.622C81.7102 156.69 81.8966 156.724 82.127 156.724C82.4352 156.724 82.6896 156.65 82.8901 156.501C83.0906 156.351 83.1909 156.118 83.1909 155.8V155.024H83.1412C83.0981 155.094 83.0368 155.18 82.9572 155.283C82.8793 155.384 82.7666 155.474 82.6191 155.553C82.4733 155.631 82.2761 155.67 82.0275 155.67C81.7193 155.67 81.4425 155.597 81.1973 155.452C80.9537 155.306 80.7606 155.094 80.6181 154.815C80.4772 154.537 80.4068 154.199 80.4068 153.801C80.4068 153.41 80.4756 153.069 80.6131 152.779C80.7507 152.488 80.9421 152.262 81.1873 152.103C81.4326 151.942 81.716 151.862 82.0375 151.862C82.286 151.862 82.4833 151.904 82.6291 151.986C82.7766 152.068 82.8893 152.16 82.9672 152.265C83.0467 152.368 83.108 152.452 83.1511 152.518H83.2108V151.912H83.7775V155.839C83.7775 156.167 83.7029 156.434 83.5538 156.64C83.4063 156.847 83.2074 156.999 82.9572 157.095C82.7086 157.192 82.4319 157.241 82.127 157.241ZM82.1071 155.143C82.3424 155.143 82.5413 155.089 82.7037 154.982C82.8661 154.874 82.9895 154.719 83.074 154.517C83.1586 154.315 83.2008 154.073 83.2008 153.791C83.2008 153.516 83.1594 153.273 83.0765 153.063C82.9937 152.852 82.871 152.687 82.7086 152.568C82.5462 152.449 82.3457 152.389 82.1071 152.389C81.8585 152.389 81.6513 152.452 81.4856 152.578C81.3216 152.704 81.1981 152.873 81.1152 153.085C81.034 153.297 80.9934 153.533 80.9934 153.791C80.9934 154.056 81.0349 154.291 81.1177 154.495C81.2022 154.697 81.3265 154.856 81.4906 154.972C81.6563 155.086 81.8618 155.143 82.1071 155.143ZM86.4522 155.81C86.0843 155.81 85.767 155.728 85.5002 155.566C85.235 155.402 85.0304 155.173 84.8862 154.88C84.7437 154.585 84.6724 154.242 84.6724 153.851C84.6724 153.46 84.7437 153.115 84.8862 152.817C85.0304 152.517 85.2309 152.283 85.4877 152.116C85.7463 151.947 86.0479 151.862 86.3926 151.862C86.5914 151.862 86.7878 151.895 86.9817 151.962C87.1756 152.028 87.3521 152.136 87.5112 152.285C87.6703 152.432 87.7971 152.628 87.8915 152.871C87.986 153.115 88.0332 153.415 88.0332 153.771V154.02H85.09V153.513H87.4366C87.4366 153.297 87.3935 153.105 87.3074 152.936C87.2228 152.767 87.1019 152.634 86.9444 152.536C86.7886 152.438 86.6047 152.389 86.3926 152.389C86.1589 152.389 85.9567 152.447 85.786 152.563C85.617 152.677 85.4869 152.827 85.3958 153.011C85.3046 153.194 85.2591 153.392 85.2591 153.602V153.94C85.2591 154.229 85.3088 154.473 85.4082 154.674C85.5093 154.872 85.6493 155.024 85.8283 155.128C86.0073 155.231 86.2153 155.283 86.4522 155.283C86.6064 155.283 86.7456 155.261 86.8699 155.218C86.9958 155.173 87.1043 155.107 87.1955 155.019C87.2866 154.93 87.3571 154.819 87.4068 154.686L87.9735 154.845C87.9139 155.037 87.8136 155.206 87.6728 155.352C87.5319 155.496 87.3579 155.609 87.1507 155.69C86.9436 155.77 86.7108 155.81 86.4522 155.81ZM89.5123 153.433V155.73H88.9256V151.912H89.4924V152.508H89.5421C89.6316 152.314 89.7675 152.159 89.9498 152.041C90.132 151.922 90.3674 151.862 90.6557 151.862C90.9142 151.862 91.1404 151.915 91.3343 152.021C91.5282 152.126 91.679 152.285 91.7868 152.498C91.8945 152.711 91.9483 152.979 91.9483 153.304V155.73H91.3617V153.344C91.3617 153.044 91.2838 152.81 91.128 152.643C90.9722 152.474 90.7585 152.389 90.4867 152.389C90.2994 152.389 90.132 152.43 89.9846 152.511C89.8387 152.592 89.7235 152.711 89.639 152.866C89.5545 153.022 89.5123 153.211 89.5123 153.433ZM94.4621 155.81C94.1439 155.81 93.863 155.729 93.6194 155.568C93.3758 155.406 93.1852 155.177 93.0477 154.882C92.9101 154.586 92.8414 154.235 92.8414 153.831C92.8414 153.43 92.9101 153.082 93.0477 152.787C93.1852 152.492 93.3766 152.264 93.6219 152.103C93.8672 151.942 94.1505 151.862 94.472 151.862C94.7206 151.862 94.917 151.904 95.0612 151.986C95.207 152.068 95.318 152.16 95.3943 152.265C95.4722 152.368 95.5326 152.452 95.5757 152.518H95.6254V150.639H96.2121V155.73H95.6453V155.143H95.5757C95.5326 155.213 95.4713 155.301 95.3918 155.407C95.3122 155.511 95.1987 155.605 95.0512 155.688C94.9037 155.769 94.7074 155.81 94.4621 155.81ZM94.5416 155.283C94.777 155.283 94.9758 155.221 95.1382 155.099C95.3006 154.974 95.4241 154.803 95.5086 154.584C95.5931 154.364 95.6354 154.109 95.6354 153.821C95.6354 153.536 95.594 153.286 95.5111 153.073C95.4282 152.857 95.3056 152.69 95.1432 152.571C94.9808 152.45 94.7803 152.389 94.5416 152.389C94.2931 152.389 94.0859 152.453 93.9202 152.58C93.7561 152.706 93.6327 152.878 93.5498 153.095C93.4686 153.31 93.428 153.552 93.428 153.821C93.428 154.093 93.4694 154.34 93.5523 154.562C93.6368 154.782 93.7611 154.958 93.9252 155.089C94.0909 155.218 94.2964 155.283 94.5416 155.283ZM98.4916 155.819C98.2496 155.819 98.03 155.774 97.8328 155.683C97.6356 155.59 97.479 155.457 97.363 155.283C97.247 155.107 97.189 154.895 97.189 154.646C97.189 154.427 97.2321 154.25 97.3183 154.114C97.4044 153.977 97.5196 153.869 97.6638 153.791C97.808 153.713 97.9671 153.655 98.1411 153.617C98.3167 153.577 98.4932 153.546 98.6705 153.523C98.9026 153.493 99.0906 153.47 99.2348 153.455C99.3807 153.439 99.4867 153.412 99.553 153.373C99.6209 153.335 99.6549 153.269 99.6549 153.175V153.155C99.6549 152.909 99.5878 152.719 99.4536 152.583C99.321 152.447 99.1196 152.379 98.8495 152.379C98.5695 152.379 98.3499 152.44 98.1908 152.563C98.0317 152.686 97.9198 152.817 97.8552 152.956L97.2984 152.757C97.3978 152.525 97.5304 152.344 97.6961 152.215C97.8635 152.084 98.0458 151.993 98.243 151.942C98.4419 151.889 98.6374 151.862 98.8296 151.862C98.9523 151.862 99.0931 151.877 99.2522 151.907C99.413 151.935 99.5679 151.994 99.7171 152.083C99.8679 152.173 99.993 152.308 100.092 152.489C100.192 152.669 100.242 152.911 100.242 153.214V155.73H99.6549V155.213H99.6251C99.5853 155.296 99.519 155.384 99.4262 155.479C99.3334 155.573 99.21 155.654 99.0558 155.72C98.9017 155.786 98.7136 155.819 98.4916 155.819ZM98.5811 155.292C98.8131 155.292 99.0086 155.247 99.1677 155.156C99.3285 155.065 99.4494 154.947 99.5306 154.803C99.6135 154.659 99.6549 154.507 99.6549 154.348V153.811C99.6301 153.841 99.5754 153.868 99.4909 153.893C99.408 153.916 99.3119 153.937 99.2025 153.955C99.0948 153.972 98.9896 153.987 98.8868 154C98.7857 154.011 98.7037 154.021 98.6407 154.03C98.4883 154.05 98.3457 154.082 98.2132 154.127C98.0822 154.17 97.9762 154.235 97.895 154.323C97.8154 154.409 97.7757 154.527 97.7757 154.676C97.7757 154.88 97.8511 155.034 98.0019 155.138C98.1543 155.241 98.3474 155.292 98.5811 155.292ZM101.312 155.73V151.912H101.879V152.508H101.929C102.008 152.305 102.137 152.146 102.314 152.034C102.491 151.919 102.704 151.862 102.953 151.862C103.205 151.862 103.414 151.919 103.582 152.034C103.751 152.146 103.883 152.305 103.977 152.508H104.017C104.115 152.311 104.261 152.155 104.457 152.039C104.652 151.921 104.887 151.862 105.16 151.862C105.502 151.862 105.781 151.969 105.998 152.183C106.215 152.395 106.324 152.725 106.324 153.175V155.73H105.737V153.175C105.737 152.893 105.66 152.692 105.506 152.571C105.352 152.45 105.17 152.389 104.961 152.389C104.693 152.389 104.485 152.47 104.338 152.633C104.19 152.793 104.116 152.997 104.116 153.244V155.73H103.52V153.115C103.52 152.898 103.449 152.723 103.308 152.59C103.168 152.456 102.986 152.389 102.764 152.389C102.612 152.389 102.469 152.43 102.336 152.511C102.206 152.592 102.099 152.705 102.018 152.849C101.939 152.991 101.899 153.156 101.899 153.344V155.73H101.312ZM108.997 155.81C108.629 155.81 108.312 155.728 108.045 155.566C107.78 155.402 107.575 155.173 107.431 154.88C107.289 154.585 107.217 154.242 107.217 153.851C107.217 153.46 107.289 153.115 107.431 152.817C107.575 152.517 107.776 152.283 108.033 152.116C108.291 151.947 108.593 151.862 108.938 151.862C109.136 151.862 109.333 151.895 109.527 151.962C109.721 152.028 109.897 152.136 110.056 152.285C110.215 152.432 110.342 152.628 110.436 152.871C110.531 153.115 110.578 153.415 110.578 153.771V154.02H107.635V153.513H109.982C109.982 153.297 109.938 153.105 109.852 152.936C109.768 152.767 109.647 152.634 109.489 152.536C109.334 152.438 109.15 152.389 108.938 152.389C108.704 152.389 108.502 152.447 108.331 152.563C108.162 152.677 108.032 152.827 107.941 153.011C107.85 153.194 107.804 153.392 107.804 153.602V153.94C107.804 154.229 107.854 154.473 107.953 154.674C108.054 154.872 108.194 155.024 108.373 155.128C108.552 155.231 108.76 155.283 108.997 155.283C109.151 155.283 109.29 155.261 109.415 155.218C109.541 155.173 109.649 155.107 109.74 155.019C109.832 154.93 109.902 154.819 109.952 154.686L110.518 154.845C110.459 155.037 110.359 155.206 110.218 155.352C110.077 155.496 109.903 155.609 109.696 155.69C109.489 155.77 109.256 155.81 108.997 155.81ZM112.057 153.433V155.73H111.471V151.912H112.037V152.508H112.087C112.176 152.314 112.312 152.159 112.495 152.041C112.677 151.922 112.912 151.862 113.201 151.862C113.459 151.862 113.685 151.915 113.879 152.021C114.073 152.126 114.224 152.285 114.332 152.498C114.439 152.711 114.493 152.979 114.493 153.304V155.73H113.907V153.344C113.907 153.044 113.829 152.81 113.673 152.643C113.517 152.474 113.303 152.389 113.032 152.389C112.844 152.389 112.677 152.43 112.529 152.511C112.384 152.592 112.268 152.711 112.184 152.866C112.099 153.022 112.057 153.211 112.057 153.433ZM117.226 151.912V152.409H115.247V151.912H117.226ZM115.824 150.997H116.41V154.636C116.41 154.802 116.434 154.926 116.483 155.009C116.532 155.09 116.595 155.145 116.671 155.173C116.749 155.2 116.831 155.213 116.918 155.213C116.982 155.213 117.035 155.21 117.077 155.203C117.118 155.195 117.151 155.188 117.176 155.183L117.295 155.71C117.256 155.725 117.2 155.74 117.129 155.755C117.058 155.771 116.967 155.78 116.858 155.78C116.692 155.78 116.53 155.744 116.371 155.673C116.213 155.602 116.082 155.493 115.978 155.347C115.875 155.201 115.824 155.017 115.824 154.795V150.997ZM119.618 155.81C119.274 155.81 118.971 155.727 118.711 155.563C118.453 155.399 118.25 155.17 118.104 154.875C117.96 154.58 117.888 154.235 117.888 153.841C117.888 153.443 117.96 153.096 118.104 152.799C118.25 152.503 118.453 152.272 118.711 152.108C118.971 151.944 119.274 151.862 119.618 151.862C119.963 151.862 120.265 151.944 120.523 152.108C120.783 152.272 120.986 152.503 121.13 152.799C121.276 153.096 121.348 153.443 121.348 153.841C121.348 154.235 121.276 154.58 121.13 154.875C120.986 155.17 120.783 155.399 120.523 155.563C120.265 155.727 119.963 155.81 119.618 155.81ZM119.618 155.283C119.88 155.283 120.096 155.215 120.265 155.081C120.434 154.947 120.559 154.77 120.64 154.552C120.721 154.333 120.762 154.096 120.762 153.841C120.762 153.586 120.721 153.348 120.64 153.127C120.559 152.907 120.434 152.729 120.265 152.593C120.096 152.457 119.88 152.389 119.618 152.389C119.357 152.389 119.141 152.457 118.972 152.593C118.803 152.729 118.678 152.907 118.597 153.127C118.515 153.348 118.475 153.586 118.475 153.841C118.475 154.096 118.515 154.333 118.597 154.552C118.678 154.77 118.803 154.947 118.972 155.081C119.141 155.215 119.357 155.283 119.618 155.283ZM124.949 152.767L124.422 152.916C124.388 152.828 124.339 152.743 124.275 152.66C124.212 152.576 124.126 152.506 124.016 152.451C123.907 152.397 123.767 152.369 123.596 152.369C123.363 152.369 123.168 152.423 123.012 152.531C122.858 152.637 122.781 152.772 122.781 152.936C122.781 153.082 122.834 153.197 122.94 153.281C123.046 153.366 123.212 153.436 123.437 153.493L124.004 153.632C124.345 153.715 124.6 153.842 124.767 154.012C124.934 154.181 125.018 154.399 125.018 154.666C125.018 154.885 124.955 155.08 124.829 155.253C124.705 155.425 124.531 155.561 124.307 155.66C124.083 155.76 123.823 155.81 123.527 155.81C123.137 155.81 122.815 155.725 122.56 155.556C122.304 155.387 122.143 155.14 122.075 154.815L122.632 154.676C122.685 154.881 122.785 155.036 122.933 155.138C123.082 155.241 123.276 155.292 123.517 155.292C123.79 155.292 124.007 155.234 124.168 155.118C124.33 155.001 124.412 154.86 124.412 154.696C124.412 154.563 124.365 154.452 124.272 154.363C124.18 154.272 124.037 154.204 123.845 154.159L123.208 154.01C122.859 153.927 122.602 153.799 122.438 153.625C122.275 153.449 122.194 153.229 122.194 152.966C122.194 152.75 122.255 152.56 122.376 152.394C122.498 152.228 122.665 152.098 122.875 152.004C123.087 151.909 123.328 151.862 123.596 151.862C123.974 151.862 124.271 151.945 124.486 152.111C124.703 152.276 124.857 152.495 124.949 152.767ZM126.329 155.77C126.206 155.77 126.101 155.726 126.013 155.638C125.925 155.55 125.881 155.445 125.881 155.322C125.881 155.2 125.925 155.094 126.013 155.007C126.101 154.919 126.206 154.875 126.329 154.875C126.451 154.875 126.557 154.919 126.644 155.007C126.732 155.094 126.776 155.2 126.776 155.322C126.776 155.404 126.755 155.478 126.714 155.546C126.674 155.614 126.62 155.669 126.552 155.71C126.486 155.75 126.412 155.77 126.329 155.77Z" fill="#A0A0A0"/>
</svg>
