<svg width="154" height="161" viewBox="0 0 154 161" fill="none" xmlns="http://www.w3.org/2000/svg">
<path d="M97.4512 39.18C89.0812 39.18 80.5612 38.84 72.5912 36.62C64.7712 34.45 57.5912 30.24 51.1912 25.37C47.0012 22.2 43.1912 19.67 37.7512 20.05C32.4293 20.338 27.34 22.3253 23.2312 25.72C16.3112 31.78 17.3512 43.01 20.1212 50.87C24.2812 62.74 36.9412 71.01 47.7012 76.36C60.1312 82.57 73.7912 86.18 87.4812 88.25C99.4812 90.08 114.901 91.4 125.301 83.57C134.851 76.36 137.471 59.92 135.131 48.82C134.563 45.5409 132.817 42.5821 130.221 40.5C123.511 35.59 113.501 38.87 105.961 39.03C103.161 39.09 100.311 39.16 97.4512 39.18Z" fill="#F2F2F2"/>
<path d="M77.3714 107.71C97.6458 107.71 114.081 106.685 114.081 105.42C114.081 104.155 97.6458 103.13 77.3714 103.13C57.097 103.13 40.6614 104.155 40.6614 105.42C40.6614 106.685 57.097 107.71 77.3714 107.71Z" fill="#F2F2F2"/>
<path d="M25.5713 17.13L38.5713 16.03C40.1924 15.8881 41.813 16.3073 43.1619 17.2175C44.5109 18.1277 45.5062 19.4736 45.9813 21.03L58.4413 62.73L56.0013 67.1C55.3746 68.226 55.0652 69.5009 55.1061 70.7889C55.147 72.0769 55.5368 73.3296 56.2337 74.4135C56.9306 75.4974 57.9087 76.3719 59.0635 76.9436C60.2184 77.5153 61.5068 77.7629 62.7913 77.66L112.691 73.42" stroke="#BABABA" stroke-linecap="round" stroke-linejoin="round"/>
<path d="M47.8413 27.36L105.841 22.44C106.413 22.391 106.988 22.4714 107.524 22.675C108.06 22.8786 108.543 23.2003 108.938 23.6162C109.333 24.0321 109.629 24.5316 109.804 25.0776C109.98 25.6235 110.03 26.202 109.951 26.77L106.021 55.14C105.902 55.9912 105.5 56.7775 104.879 57.3724C104.259 57.9673 103.457 58.3363 102.601 58.42L58.4413 62.73L47.8413 27.36Z" fill="white" stroke="#BABABA" stroke-linecap="round" stroke-linejoin="round"/>
<path d="M68.3414 87.22C70.9426 87.22 73.0514 85.1113 73.0514 82.51C73.0514 79.9088 70.9426 77.8 68.3414 77.8C65.7401 77.8 63.6313 79.9088 63.6313 82.51C63.6313 85.1113 65.7401 87.22 68.3414 87.22Z" fill="white" stroke="#BABABA" stroke-linecap="round" stroke-linejoin="round"/>
<path d="M101.141 84.44C103.742 84.44 105.851 82.3313 105.851 79.73C105.851 77.1288 103.742 75.02 101.141 75.02C98.5399 75.02 96.4312 77.1288 96.4312 79.73C96.4312 82.3313 98.5399 84.44 101.141 84.44Z" fill="white" stroke="#BABABA" stroke-linecap="round" stroke-linejoin="round"/>
<path d="M35.8658 14.904L23.6099 15.9439C22.5478 16.0341 21.7598 16.9681 21.8499 18.0302C21.9401 19.0923 22.8741 19.8802 23.9362 19.7901L36.1922 18.7502C37.2543 18.6601 38.0422 17.726 37.9521 16.6639C37.862 15.6018 36.9279 14.8139 35.8658 14.904Z" fill="#D2D2D2"/>
<path d="M72.2612 49.27C72.5004 47.4449 73.3563 45.7565 74.6869 44.4847C76.0175 43.2129 77.743 42.4342 79.577 42.2778C81.411 42.1213 83.2433 42.5966 84.7701 43.6246C86.297 44.6527 87.4264 46.1718 87.9712 47.93" stroke="#BABABA" stroke-linecap="round" stroke-linejoin="round"/>
<path d="M88.1012 38.48C88.7198 38.48 89.2212 37.9786 89.2212 37.36C89.2212 36.7415 88.7198 36.24 88.1012 36.24C87.4826 36.24 86.9812 36.7415 86.9812 37.36C86.9812 37.9786 87.4826 38.48 88.1012 38.48Z" fill="#BABABA"/>
<path d="M70.3512 39.98C70.9698 39.98 71.4712 39.4786 71.4712 38.86C71.4712 38.2415 70.9698 37.74 70.3512 37.74C69.7326 37.74 69.2312 38.2415 69.2312 38.86C69.2312 39.4786 69.7326 39.98 70.3512 39.98Z" fill="#BABABA"/>
<path d="M38.8013 81.12V85.43" stroke="#BABABA" stroke-linecap="round" stroke-linejoin="round"/>
<path d="M36.6514 83.27H40.9514" stroke="#BABABA" stroke-linecap="round" stroke-linejoin="round"/>
<path d="M107.511 1V5.3" stroke="#BABABA" stroke-linecap="round" stroke-linejoin="round"/>
<path d="M105.361 3.15002H109.661" stroke="#BABABA" stroke-linecap="round" stroke-linejoin="round"/>
<path d="M56.6013 13.85V18.15" stroke="#BABABA" stroke-linecap="round" stroke-linejoin="round"/>
<path d="M54.4412 16H58.7512" stroke="#BABABA" stroke-linecap="round" stroke-linejoin="round"/>
<path d="M118.241 29.66C118.805 29.66 119.261 29.2033 119.261 28.64C119.261 28.0767 118.805 27.62 118.241 27.62C117.678 27.62 117.221 28.0767 117.221 28.64C117.221 29.2033 117.678 29.66 118.241 29.66Z" fill="white" stroke="#BABABA" stroke-linecap="round" stroke-linejoin="round"/>
<path d="M80.1214 20.49C80.6626 20.49 81.1014 20.0512 81.1014 19.51C81.1014 18.9688 80.6626 18.53 80.1214 18.53C79.5801 18.53 79.1414 18.9688 79.1414 19.51C79.1414 20.0512 79.5801 20.49 80.1214 20.49Z" fill="#CFCFCF"/>
<path d="M86.7012 91.61C87.2424 91.61 87.6812 91.1713 87.6812 90.63C87.6812 90.0888 87.2424 89.65 86.7012 89.65C86.16 89.65 85.7212 90.0888 85.7212 90.63C85.7212 91.1713 86.16 91.61 86.7012 91.61Z" fill="#CFCFCF"/>
<path d="M29.655 138.915C29.615 138.985 29.5717 139.037 29.525 139.07C29.4817 139.1 29.4267 139.115 29.36 139.115C29.29 139.115 29.2133 139.09 29.13 139.04C29.05 138.987 28.9533 138.928 28.84 138.865C28.7267 138.802 28.5933 138.745 28.44 138.695C28.29 138.642 28.1117 138.615 27.905 138.615C27.7183 138.615 27.555 138.638 27.415 138.685C27.275 138.728 27.1567 138.79 27.06 138.87C26.9667 138.95 26.8967 139.047 26.85 139.16C26.8033 139.27 26.78 139.392 26.78 139.525C26.78 139.695 26.8267 139.837 26.92 139.95C27.0167 140.063 27.1433 140.16 27.3 140.24C27.4567 140.32 27.635 140.392 27.835 140.455C28.035 140.518 28.24 140.587 28.45 140.66C28.66 140.73 28.865 140.813 29.065 140.91C29.265 141.003 29.4433 141.123 29.6 141.27C29.7567 141.413 29.8817 141.59 29.975 141.8C30.0717 142.01 30.12 142.265 30.12 142.565C30.12 142.892 30.0633 143.198 29.95 143.485C29.84 143.768 29.6767 144.017 29.46 144.23C29.2467 144.44 28.985 144.607 28.675 144.73C28.365 144.85 28.01 144.91 27.61 144.91C27.38 144.91 27.1533 144.887 26.93 144.84C26.7067 144.797 26.4917 144.733 26.285 144.65C26.0817 144.567 25.89 144.467 25.71 144.35C25.53 144.233 25.37 144.103 25.23 143.96L25.625 143.315C25.6583 143.268 25.7017 143.23 25.755 143.2C25.8083 143.167 25.865 143.15 25.925 143.15C26.0083 143.15 26.0983 143.185 26.195 143.255C26.2917 143.322 26.4067 143.397 26.54 143.48C26.6733 143.563 26.8283 143.64 27.005 143.71C27.185 143.777 27.4 143.81 27.65 143.81C28.0333 143.81 28.33 143.72 28.54 143.54C28.75 143.357 28.855 143.095 28.855 142.755C28.855 142.565 28.8067 142.41 28.71 142.29C28.6167 142.17 28.4917 142.07 28.335 141.99C28.1783 141.907 28 141.837 27.8 141.78C27.6 141.723 27.3967 141.662 27.19 141.595C26.9833 141.528 26.78 141.448 26.58 141.355C26.38 141.262 26.2017 141.14 26.045 140.99C25.8883 140.84 25.7617 140.653 25.665 140.43C25.5717 140.203 25.525 139.925 25.525 139.595C25.525 139.332 25.5767 139.075 25.68 138.825C25.7867 138.575 25.94 138.353 26.14 138.16C26.34 137.967 26.5867 137.812 26.88 137.695C27.1733 137.578 27.51 137.52 27.89 137.52C28.3167 137.52 28.71 137.587 29.07 137.72C29.43 137.853 29.7367 138.04 29.99 138.28L29.655 138.915ZM34.3838 141.675C34.3838 141.515 34.3604 141.365 34.3138 141.225C34.2704 141.082 34.2038 140.957 34.1138 140.85C34.0238 140.743 33.9088 140.66 33.7688 140.6C33.6321 140.537 33.4721 140.505 33.2888 140.505C32.9321 140.505 32.6504 140.607 32.4438 140.81C32.2404 141.013 32.1104 141.302 32.0538 141.675H34.3838ZM32.0288 142.42C32.0488 142.683 32.0954 142.912 32.1688 143.105C32.2421 143.295 32.3388 143.453 32.4588 143.58C32.5788 143.703 32.7204 143.797 32.8838 143.86C33.0504 143.92 33.2338 143.95 33.4338 143.95C33.6338 143.95 33.8054 143.927 33.9488 143.88C34.0954 143.833 34.2221 143.782 34.3288 143.725C34.4388 143.668 34.5338 143.617 34.6138 143.57C34.6971 143.523 34.7771 143.5 34.8538 143.5C34.9571 143.5 35.0338 143.538 35.0838 143.615L35.4388 144.065C35.3021 144.225 35.1488 144.36 34.9788 144.47C34.8088 144.577 34.6304 144.663 34.4438 144.73C34.2604 144.793 34.0721 144.838 33.8788 144.865C33.6888 144.892 33.5038 144.905 33.3238 144.905C32.9671 144.905 32.6354 144.847 32.3288 144.73C32.0221 144.61 31.7554 144.435 31.5288 144.205C31.3021 143.972 31.1238 143.685 30.9938 143.345C30.8638 143.002 30.7987 142.605 30.7987 142.155C30.7987 141.805 30.8554 141.477 30.9688 141.17C31.0821 140.86 31.2438 140.592 31.4538 140.365C31.6671 140.135 31.9254 139.953 32.2288 139.82C32.5354 139.687 32.8804 139.62 33.2638 139.62C33.5871 139.62 33.8854 139.672 34.1588 139.775C34.4321 139.878 34.6671 140.03 34.8638 140.23C35.0604 140.427 35.2138 140.67 35.3238 140.96C35.4371 141.247 35.4937 141.575 35.4937 141.945C35.4937 142.132 35.4738 142.258 35.4338 142.325C35.3938 142.388 35.3171 142.42 35.2038 142.42H32.0288ZM40.8405 139.7V144.83H40.0855C39.9222 144.83 39.8189 144.755 39.7755 144.605L39.6905 144.195C39.4805 144.408 39.2489 144.582 38.9955 144.715C38.7422 144.845 38.4439 144.91 38.1005 144.91C37.8205 144.91 37.5722 144.863 37.3555 144.77C37.1422 144.673 36.9622 144.538 36.8155 144.365C36.6689 144.192 36.5572 143.987 36.4805 143.75C36.4072 143.51 36.3705 143.247 36.3705 142.96V139.7H37.6055V142.96C37.6055 143.273 37.6772 143.517 37.8205 143.69C37.9672 143.86 38.1855 143.945 38.4755 143.945C38.6889 143.945 38.8889 143.898 39.0755 143.805C39.2622 143.708 39.4389 143.577 39.6055 143.41V139.7H40.8405ZM48.1717 140.785C48.1351 140.832 48.0984 140.868 48.0617 140.895C48.0284 140.922 47.9784 140.935 47.9117 140.935C47.8484 140.935 47.7867 140.917 47.7267 140.88C47.6667 140.84 47.5951 140.797 47.5117 140.75C47.4284 140.7 47.3284 140.657 47.2117 140.62C47.0984 140.58 46.9567 140.56 46.7867 140.56C46.5701 140.56 46.3801 140.6 46.2167 140.68C46.0534 140.757 45.9167 140.868 45.8067 141.015C45.7001 141.162 45.6201 141.34 45.5667 141.55C45.5134 141.757 45.4867 141.992 45.4867 142.255C45.4867 142.528 45.5151 142.772 45.5717 142.985C45.6317 143.198 45.7167 143.378 45.8267 143.525C45.9367 143.668 46.0701 143.778 46.2267 143.855C46.3834 143.928 46.5601 143.965 46.7567 143.965C46.9534 143.965 47.1117 143.942 47.2317 143.895C47.3551 143.845 47.4584 143.792 47.5417 143.735C47.6251 143.675 47.6967 143.622 47.7567 143.575C47.8201 143.525 47.8901 143.5 47.9667 143.5C48.0667 143.5 48.1417 143.538 48.1917 143.615L48.5467 144.065C48.4101 144.225 48.2617 144.36 48.1017 144.47C47.9417 144.577 47.7751 144.663 47.6017 144.73C47.4317 144.793 47.2551 144.838 47.0717 144.865C46.8917 144.892 46.7117 144.905 46.5317 144.905C46.2151 144.905 45.9167 144.847 45.6367 144.73C45.3567 144.61 45.1117 144.437 44.9017 144.21C44.6917 143.983 44.5251 143.707 44.4017 143.38C44.2817 143.05 44.2217 142.675 44.2217 142.255C44.2217 141.878 44.2751 141.53 44.3817 141.21C44.4917 140.887 44.6517 140.608 44.8617 140.375C45.0717 140.138 45.3317 139.953 45.6417 139.82C45.9517 139.687 46.3084 139.62 46.7117 139.62C47.0951 139.62 47.4301 139.682 47.7167 139.805C48.0067 139.928 48.2667 140.105 48.4967 140.335L48.1717 140.785ZM52.0309 142.64C51.6743 142.657 51.3743 142.688 51.1309 142.735C50.8876 142.778 50.6926 142.835 50.5459 142.905C50.3993 142.975 50.2943 143.057 50.2309 143.15C50.1676 143.243 50.1359 143.345 50.1359 143.455C50.1359 143.672 50.1993 143.827 50.3259 143.92C50.4559 144.013 50.6243 144.06 50.8309 144.06C51.0843 144.06 51.3026 144.015 51.4859 143.925C51.6726 143.832 51.8543 143.692 52.0309 143.505V142.64ZM49.2009 140.415C49.7909 139.875 50.5009 139.605 51.3309 139.605C51.6309 139.605 51.8993 139.655 52.1359 139.755C52.3726 139.852 52.5726 139.988 52.7359 140.165C52.8993 140.338 53.0226 140.547 53.1059 140.79C53.1926 141.033 53.2359 141.3 53.2359 141.59V144.83H52.6759C52.5593 144.83 52.4693 144.813 52.4059 144.78C52.3426 144.743 52.2926 144.672 52.2559 144.565L52.1459 144.195C52.0159 144.312 51.8893 144.415 51.7659 144.505C51.6426 144.592 51.5143 144.665 51.3809 144.725C51.2476 144.785 51.1043 144.83 50.9509 144.86C50.8009 144.893 50.6343 144.91 50.4509 144.91C50.2343 144.91 50.0343 144.882 49.8509 144.825C49.6676 144.765 49.5093 144.677 49.3759 144.56C49.2426 144.443 49.1393 144.298 49.0659 144.125C48.9926 143.952 48.9559 143.75 48.9559 143.52C48.9559 143.39 48.9776 143.262 49.0209 143.135C49.0643 143.005 49.1343 142.882 49.2309 142.765C49.3309 142.648 49.4593 142.538 49.6159 142.435C49.7726 142.332 49.9643 142.242 50.1909 142.165C50.4209 142.088 50.6876 142.027 50.9909 141.98C51.2943 141.93 51.6409 141.9 52.0309 141.89V141.59C52.0309 141.247 51.9576 140.993 51.8109 140.83C51.6643 140.663 51.4526 140.58 51.1759 140.58C50.9759 140.58 50.8093 140.603 50.6759 140.65C50.5459 140.697 50.4309 140.75 50.3309 140.81C50.2309 140.867 50.1393 140.918 50.0559 140.965C49.9759 141.012 49.8859 141.035 49.7859 141.035C49.6993 141.035 49.6259 141.013 49.5659 140.97C49.5059 140.923 49.4576 140.87 49.4209 140.81L49.2009 140.415ZM55.5641 140.59C55.7241 140.283 55.9141 140.043 56.1341 139.87C56.3541 139.693 56.6141 139.605 56.9141 139.605C57.1507 139.605 57.3407 139.657 57.4841 139.76L57.4041 140.685C57.3874 140.745 57.3624 140.788 57.3291 140.815C57.2991 140.838 57.2574 140.85 57.2041 140.85C57.1541 140.85 57.0791 140.842 56.9791 140.825C56.8824 140.808 56.7874 140.8 56.6941 140.8C56.5574 140.8 56.4357 140.82 56.3291 140.86C56.2224 140.9 56.1257 140.958 56.0391 141.035C55.9557 141.108 55.8807 141.198 55.8141 141.305C55.7507 141.412 55.6907 141.533 55.6341 141.67V144.83H54.3991V139.7H55.1241C55.2507 139.7 55.3391 139.723 55.3891 139.77C55.4391 139.813 55.4724 139.893 55.4891 140.01L55.5641 140.59ZM59.2945 140.59C59.4545 140.283 59.6445 140.043 59.8645 139.87C60.0845 139.693 60.3445 139.605 60.6445 139.605C60.8812 139.605 61.0712 139.657 61.2145 139.76L61.1345 140.685C61.1179 140.745 61.0929 140.788 61.0595 140.815C61.0295 140.838 60.9879 140.85 60.9345 140.85C60.8845 140.85 60.8095 140.842 60.7095 140.825C60.6129 140.808 60.5179 140.8 60.4245 140.8C60.2879 140.8 60.1662 140.82 60.0595 140.86C59.9529 140.9 59.8562 140.958 59.7695 141.035C59.6862 141.108 59.6112 141.198 59.5445 141.305C59.4812 141.412 59.4212 141.533 59.3645 141.67V144.83H58.1295V139.7H58.8545C58.9812 139.7 59.0695 139.723 59.1195 139.77C59.1695 139.813 59.2029 139.893 59.2195 140.01L59.2945 140.59ZM63.14 139.7V144.83H61.9V139.7H63.14ZM63.31 138.205C63.31 138.312 63.2883 138.412 63.245 138.505C63.2017 138.598 63.1433 138.68 63.07 138.75C63 138.82 62.9167 138.877 62.82 138.92C62.7233 138.96 62.62 138.98 62.51 138.98C62.4033 138.98 62.3017 138.96 62.205 138.92C62.1117 138.877 62.03 138.82 61.96 138.75C61.89 138.68 61.8333 138.598 61.79 138.505C61.75 138.412 61.73 138.312 61.73 138.205C61.73 138.095 61.75 137.992 61.79 137.895C61.8333 137.798 61.89 137.715 61.96 137.645C62.03 137.575 62.1117 137.52 62.205 137.48C62.3017 137.437 62.4033 137.415 62.51 137.415C62.62 137.415 62.7233 137.437 62.82 137.48C62.9167 137.52 63 137.575 63.07 137.645C63.1433 137.715 63.2017 137.798 63.245 137.895C63.2883 137.992 63.31 138.095 63.31 138.205ZM65.5541 140.33C65.6574 140.227 65.7657 140.132 65.8791 140.045C65.9957 139.955 66.1174 139.88 66.2441 139.82C66.3741 139.757 66.5124 139.708 66.6591 139.675C66.8057 139.638 66.9657 139.62 67.1391 139.62C67.4191 139.62 67.6674 139.668 67.8841 139.765C68.1007 139.858 68.2807 139.992 68.4241 140.165C68.5707 140.335 68.6807 140.54 68.7541 140.78C68.8307 141.017 68.8691 141.278 68.8691 141.565V144.83H67.6341V141.565C67.6341 141.252 67.5624 141.01 67.4191 140.84C67.2757 140.667 67.0574 140.58 66.7641 140.58C66.5507 140.58 66.3507 140.628 66.1641 140.725C65.9774 140.822 65.8007 140.953 65.6341 141.12V144.83H64.3991V139.7H65.1541C65.3141 139.7 65.4191 139.775 65.4691 139.925L65.5541 140.33ZM71.2786 140.25C71.4786 140.063 71.6986 139.912 71.9386 139.795C72.1786 139.678 72.4603 139.62 72.7836 139.62C73.0636 139.62 73.3119 139.668 73.5286 139.765C73.7453 139.858 73.9253 139.992 74.0686 140.165C74.2153 140.335 74.3253 140.54 74.3986 140.78C74.4753 141.017 74.5136 141.278 74.5136 141.565V144.83H73.2786V141.565C73.2786 141.252 73.2069 141.01 73.0636 140.84C72.9203 140.667 72.7019 140.58 72.4086 140.58C72.1953 140.58 71.9953 140.628 71.8086 140.725C71.6219 140.822 71.4453 140.953 71.2786 141.12V144.83H70.0436V137.4H71.2786V140.25ZM77.9581 139.62C78.3381 139.62 78.6831 139.682 78.9931 139.805C79.3065 139.928 79.5731 140.103 79.7931 140.33C80.0165 140.557 80.1881 140.833 80.3081 141.16C80.4281 141.487 80.4881 141.852 80.4881 142.255C80.4881 142.662 80.4281 143.028 80.3081 143.355C80.1881 143.682 80.0165 143.96 79.7931 144.19C79.5731 144.42 79.3065 144.597 78.9931 144.72C78.6831 144.843 78.3381 144.905 77.9581 144.905C77.5748 144.905 77.2265 144.843 76.9131 144.72C76.5998 144.597 76.3315 144.42 76.1081 144.19C75.8881 143.96 75.7165 143.682 75.5931 143.355C75.4731 143.028 75.4131 142.662 75.4131 142.255C75.4131 141.852 75.4731 141.487 75.5931 141.16C75.7165 140.833 75.8881 140.557 76.1081 140.33C76.3315 140.103 76.5998 139.928 76.9131 139.805C77.2265 139.682 77.5748 139.62 77.9581 139.62ZM77.9581 143.955C78.3848 143.955 78.6998 143.812 78.9031 143.525C79.1098 143.238 79.2131 142.818 79.2131 142.265C79.2131 141.712 79.1098 141.29 78.9031 141C78.6998 140.71 78.3848 140.565 77.9581 140.565C77.5248 140.565 77.2031 140.712 76.9931 141.005C76.7865 141.295 76.6831 141.715 76.6831 142.265C76.6831 142.815 76.7865 143.235 76.9931 143.525C77.2031 143.812 77.5248 143.955 77.9581 143.955ZM87.167 141.675C87.167 141.515 87.1436 141.365 87.097 141.225C87.0536 141.082 86.987 140.957 86.897 140.85C86.807 140.743 86.692 140.66 86.552 140.6C86.4153 140.537 86.2553 140.505 86.072 140.505C85.7153 140.505 85.4336 140.607 85.227 140.81C85.0236 141.013 84.8936 141.302 84.837 141.675H87.167ZM84.812 142.42C84.832 142.683 84.8786 142.912 84.952 143.105C85.0253 143.295 85.122 143.453 85.242 143.58C85.362 143.703 85.5036 143.797 85.667 143.86C85.8336 143.92 86.017 143.95 86.217 143.95C86.417 143.95 86.5886 143.927 86.732 143.88C86.8786 143.833 87.0053 143.782 87.112 143.725C87.222 143.668 87.317 143.617 87.397 143.57C87.4803 143.523 87.5603 143.5 87.637 143.5C87.7403 143.5 87.817 143.538 87.867 143.615L88.222 144.065C88.0853 144.225 87.932 144.36 87.762 144.47C87.592 144.577 87.4136 144.663 87.227 144.73C87.0436 144.793 86.8553 144.838 86.662 144.865C86.472 144.892 86.287 144.905 86.107 144.905C85.7503 144.905 85.4186 144.847 85.112 144.73C84.8053 144.61 84.5386 144.435 84.312 144.205C84.0853 143.972 83.907 143.685 83.777 143.345C83.647 143.002 83.582 142.605 83.582 142.155C83.582 141.805 83.6386 141.477 83.752 141.17C83.8653 140.86 84.027 140.592 84.237 140.365C84.4503 140.135 84.7086 139.953 85.012 139.82C85.3186 139.687 85.6636 139.62 86.047 139.62C86.3703 139.62 86.6686 139.672 86.942 139.775C87.2153 139.878 87.4503 140.03 87.647 140.23C87.8436 140.427 87.997 140.67 88.107 140.96C88.2203 141.247 88.277 141.575 88.277 141.945C88.277 142.132 88.257 142.258 88.217 142.325C88.177 142.388 88.1003 142.42 87.987 142.42H84.812ZM92.3338 140.7C92.3004 140.753 92.2654 140.792 92.2288 140.815C92.1921 140.835 92.1454 140.845 92.0888 140.845C92.0288 140.845 91.9638 140.828 91.8938 140.795C91.8271 140.762 91.7488 140.725 91.6588 140.685C91.5688 140.642 91.4654 140.603 91.3487 140.57C91.2354 140.537 91.1004 140.52 90.9438 140.52C90.7004 140.52 90.5088 140.572 90.3688 140.675C90.2321 140.778 90.1638 140.913 90.1638 141.08C90.1638 141.19 90.1988 141.283 90.2688 141.36C90.3421 141.433 90.4371 141.498 90.5538 141.555C90.6738 141.612 90.8088 141.663 90.9588 141.71C91.1088 141.753 91.2604 141.802 91.4138 141.855C91.5704 141.908 91.7238 141.97 91.8738 142.04C92.0238 142.107 92.1571 142.193 92.2738 142.3C92.3938 142.403 92.4888 142.528 92.5588 142.675C92.6321 142.822 92.6688 142.998 92.6688 143.205C92.6688 143.452 92.6238 143.68 92.5338 143.89C92.4471 144.097 92.3171 144.277 92.1438 144.43C91.9704 144.58 91.7554 144.698 91.4988 144.785C91.2454 144.868 90.9521 144.91 90.6188 144.91C90.4421 144.91 90.2688 144.893 90.0988 144.86C89.9321 144.83 89.7704 144.787 89.6138 144.73C89.4604 144.673 89.3171 144.607 89.1838 144.53C89.0538 144.453 88.9388 144.37 88.8388 144.28L89.1238 143.81C89.1604 143.753 89.2038 143.71 89.2537 143.68C89.3037 143.65 89.3671 143.635 89.4438 143.635C89.5204 143.635 89.5921 143.657 89.6588 143.7C89.7288 143.743 89.8088 143.79 89.8988 143.84C89.9888 143.89 90.0938 143.937 90.2138 143.98C90.3371 144.023 90.4921 144.045 90.6788 144.045C90.8254 144.045 90.9504 144.028 91.0538 143.995C91.1604 143.958 91.2471 143.912 91.3138 143.855C91.3838 143.798 91.4337 143.733 91.4638 143.66C91.4971 143.583 91.5138 143.505 91.5138 143.425C91.5138 143.305 91.4771 143.207 91.4038 143.13C91.3338 143.053 91.2388 142.987 91.1187 142.93C91.0021 142.873 90.8671 142.823 90.7138 142.78C90.5638 142.733 90.4088 142.683 90.2488 142.63C90.0921 142.577 89.9371 142.515 89.7838 142.445C89.6338 142.372 89.4988 142.28 89.3788 142.17C89.2621 142.06 89.1671 141.925 89.0938 141.765C89.0238 141.605 88.9888 141.412 88.9888 141.185C88.9888 140.975 89.0304 140.775 89.1138 140.585C89.1971 140.395 89.3188 140.23 89.4788 140.09C89.6421 139.947 89.8438 139.833 90.0838 139.75C90.3271 139.663 90.6071 139.62 90.9238 139.62C91.2771 139.62 91.5988 139.678 91.8888 139.795C92.1788 139.912 92.4204 140.065 92.6138 140.255L92.3338 140.7ZM95.3083 144.91C94.8616 144.91 94.5183 144.785 94.2783 144.535C94.0416 144.282 93.9233 143.933 93.9233 143.49V140.625H93.3983C93.3316 140.625 93.2749 140.603 93.2283 140.56C93.1816 140.517 93.1583 140.452 93.1583 140.365V139.875L93.9833 139.74L94.2433 138.34C94.2599 138.273 94.2916 138.222 94.3383 138.185C94.3849 138.148 94.4449 138.13 94.5183 138.13H95.1583V139.745H96.5283V140.625H95.1583V143.405C95.1583 143.565 95.1966 143.69 95.2733 143.78C95.3533 143.87 95.4616 143.915 95.5983 143.915C95.6749 143.915 95.7383 143.907 95.7883 143.89C95.8416 143.87 95.8866 143.85 95.9233 143.83C95.9633 143.81 95.9983 143.792 96.0283 143.775C96.0583 143.755 96.0883 143.745 96.1183 143.745C96.1549 143.745 96.1849 143.755 96.2083 143.775C96.2316 143.792 96.2566 143.818 96.2833 143.855L96.6533 144.455C96.4733 144.605 96.2666 144.718 96.0333 144.795C95.7999 144.872 95.5583 144.91 95.3083 144.91ZM100.029 142.64C99.6723 142.657 99.3723 142.688 99.129 142.735C98.8857 142.778 98.6907 142.835 98.544 142.905C98.3973 142.975 98.2923 143.057 98.229 143.15C98.1657 143.243 98.134 143.345 98.134 143.455C98.134 143.672 98.1973 143.827 98.324 143.92C98.454 144.013 98.6223 144.06 98.829 144.06C99.0823 144.06 99.3007 144.015 99.484 143.925C99.6707 143.832 99.8523 143.692 100.029 143.505V142.64ZM97.199 140.415C97.789 139.875 98.499 139.605 99.329 139.605C99.629 139.605 99.8973 139.655 100.134 139.755C100.371 139.852 100.571 139.988 100.734 140.165C100.897 140.338 101.021 140.547 101.104 140.79C101.191 141.033 101.234 141.3 101.234 141.59V144.83H100.674C100.557 144.83 100.467 144.813 100.404 144.78C100.341 144.743 100.291 144.672 100.254 144.565L100.144 144.195C100.014 144.312 99.8873 144.415 99.764 144.505C99.6407 144.592 99.5123 144.665 99.379 144.725C99.2457 144.785 99.1023 144.83 98.949 144.86C98.799 144.893 98.6323 144.91 98.449 144.91C98.2323 144.91 98.0323 144.882 97.849 144.825C97.6657 144.765 97.5073 144.677 97.374 144.56C97.2407 144.443 97.1373 144.298 97.064 144.125C96.9907 143.952 96.954 143.75 96.954 143.52C96.954 143.39 96.9757 143.262 97.019 143.135C97.0623 143.005 97.1323 142.882 97.229 142.765C97.329 142.648 97.4573 142.538 97.614 142.435C97.7707 142.332 97.9623 142.242 98.189 142.165C98.419 142.088 98.6857 142.027 98.989 141.98C99.2923 141.93 99.639 141.9 100.029 141.89V141.59C100.029 141.247 99.9557 140.993 99.809 140.83C99.6623 140.663 99.4507 140.58 99.174 140.58C98.974 140.58 98.8073 140.603 98.674 140.65C98.544 140.697 98.429 140.75 98.329 140.81C98.229 140.867 98.1373 140.918 98.054 140.965C97.974 141.012 97.884 141.035 97.784 141.035C97.6973 141.035 97.624 141.013 97.564 140.97C97.504 140.923 97.4557 140.87 97.419 140.81L97.199 140.415ZM100.944 137.52L99.709 138.825C99.6457 138.892 99.584 138.938 99.524 138.965C99.4673 138.988 99.3923 139 99.299 139H98.559L99.269 137.785C99.319 137.698 99.3773 137.633 99.444 137.59C99.5107 137.543 99.6107 137.52 99.744 137.52H100.944ZM109.21 139.7L107.175 144.83H106.055L104.02 139.7H105.04C105.133 139.7 105.21 139.722 105.27 139.765C105.333 139.808 105.375 139.863 105.395 139.93L106.385 142.67C106.438 142.83 106.485 142.987 106.525 143.14C106.565 143.293 106.6 143.447 106.63 143.6C106.663 143.447 106.7 143.293 106.74 143.14C106.78 142.987 106.828 142.83 106.885 142.67L107.895 139.93C107.918 139.863 107.96 139.808 108.02 139.765C108.08 139.722 108.151 139.7 108.235 139.7H109.21ZM112.451 142.64C112.094 142.657 111.794 142.688 111.551 142.735C111.308 142.778 111.113 142.835 110.966 142.905C110.819 142.975 110.714 143.057 110.651 143.15C110.588 143.243 110.556 143.345 110.556 143.455C110.556 143.672 110.619 143.827 110.746 143.92C110.876 144.013 111.044 144.06 111.251 144.06C111.504 144.06 111.723 144.015 111.906 143.925C112.093 143.832 112.274 143.692 112.451 143.505V142.64ZM109.621 140.415C110.211 139.875 110.921 139.605 111.751 139.605C112.051 139.605 112.319 139.655 112.556 139.755C112.793 139.852 112.993 139.988 113.156 140.165C113.319 140.338 113.443 140.547 113.526 140.79C113.613 141.033 113.656 141.3 113.656 141.59V144.83H113.096C112.979 144.83 112.889 144.813 112.826 144.78C112.763 144.743 112.713 144.672 112.676 144.565L112.566 144.195C112.436 144.312 112.309 144.415 112.186 144.505C112.063 144.592 111.934 144.665 111.801 144.725C111.668 144.785 111.524 144.83 111.371 144.86C111.221 144.893 111.054 144.91 110.871 144.91C110.654 144.91 110.454 144.882 110.271 144.825C110.088 144.765 109.929 144.677 109.796 144.56C109.663 144.443 109.559 144.298 109.486 144.125C109.413 143.952 109.376 143.75 109.376 143.52C109.376 143.39 109.398 143.262 109.441 143.135C109.484 143.005 109.554 142.882 109.651 142.765C109.751 142.648 109.879 142.538 110.036 142.435C110.193 142.332 110.384 142.242 110.611 142.165C110.841 142.088 111.108 142.027 111.411 141.98C111.714 141.93 112.061 141.9 112.451 141.89V141.59C112.451 141.247 112.378 140.993 112.231 140.83C112.084 140.663 111.873 140.58 111.596 140.58C111.396 140.58 111.229 140.603 111.096 140.65C110.966 140.697 110.851 140.75 110.751 140.81C110.651 140.867 110.559 140.918 110.476 140.965C110.396 141.012 110.306 141.035 110.206 141.035C110.119 141.035 110.046 141.013 109.986 140.97C109.926 140.923 109.878 140.87 109.841 140.81L109.621 140.415ZM118.504 140.21C118.504 140.297 118.489 140.382 118.459 140.465C118.429 140.548 118.389 140.617 118.339 140.67L115.904 143.88H118.429V144.83H114.469V144.315C114.469 144.258 114.482 144.192 114.509 144.115C114.536 144.035 114.576 143.96 114.629 143.89L117.089 140.645H114.614V139.7H118.504V140.21ZM120.699 139.7V144.83H119.459V139.7H120.699ZM120.869 138.205C120.869 138.312 120.847 138.412 120.804 138.505C120.76 138.598 120.702 138.68 120.629 138.75C120.559 138.82 120.475 138.877 120.379 138.92C120.282 138.96 120.179 138.98 120.069 138.98C119.962 138.98 119.86 138.96 119.764 138.92C119.67 138.877 119.589 138.82 119.519 138.75C119.449 138.68 119.392 138.598 119.349 138.505C119.309 138.412 119.289 138.312 119.289 138.205C119.289 138.095 119.309 137.992 119.349 137.895C119.392 137.798 119.449 137.715 119.519 137.645C119.589 137.575 119.67 137.52 119.764 137.48C119.86 137.437 119.962 137.415 120.069 137.415C120.179 137.415 120.282 137.437 120.379 137.48C120.475 137.52 120.559 137.575 120.629 137.645C120.702 137.715 120.76 137.798 120.804 137.895C120.847 137.992 120.869 138.095 120.869 138.205ZM124.228 139.62C124.608 139.62 124.953 139.682 125.263 139.805C125.576 139.928 125.843 140.103 126.063 140.33C126.286 140.557 126.458 140.833 126.578 141.16C126.698 141.487 126.758 141.852 126.758 142.255C126.758 142.662 126.698 143.028 126.578 143.355C126.458 143.682 126.286 143.96 126.063 144.19C125.843 144.42 125.576 144.597 125.263 144.72C124.953 144.843 124.608 144.905 124.228 144.905C123.844 144.905 123.496 144.843 123.183 144.72C122.869 144.597 122.601 144.42 122.378 144.19C122.158 143.96 121.986 143.682 121.863 143.355C121.743 143.028 121.683 142.662 121.683 142.255C121.683 141.852 121.743 141.487 121.863 141.16C121.986 140.833 122.158 140.557 122.378 140.33C122.601 140.103 122.869 139.928 123.183 139.805C123.496 139.682 123.844 139.62 124.228 139.62ZM124.228 143.955C124.654 143.955 124.969 143.812 125.173 143.525C125.379 143.238 125.483 142.818 125.483 142.265C125.483 141.712 125.379 141.29 125.173 141C124.969 140.71 124.654 140.565 124.228 140.565C123.794 140.565 123.473 140.712 123.263 141.005C123.056 141.295 122.953 141.715 122.953 142.265C122.953 142.815 123.056 143.235 123.263 143.525C123.473 143.812 123.794 143.955 124.228 143.955ZM127.52 144.15C127.52 144.047 127.538 143.948 127.575 143.855C127.615 143.762 127.668 143.682 127.735 143.615C127.802 143.548 127.882 143.495 127.975 143.455C128.068 143.415 128.168 143.395 128.275 143.395C128.382 143.395 128.48 143.415 128.57 143.455C128.663 143.495 128.743 143.548 128.81 143.615C128.88 143.682 128.935 143.762 128.975 143.855C129.015 143.948 129.035 144.047 129.035 144.15C129.035 144.257 129.015 144.357 128.975 144.45C128.935 144.54 128.88 144.618 128.81 144.685C128.743 144.752 128.663 144.803 128.57 144.84C128.48 144.88 128.382 144.9 128.275 144.9C128.168 144.9 128.068 144.88 127.975 144.84C127.882 144.803 127.802 144.752 127.735 144.685C127.668 144.618 127.615 144.54 127.575 144.45C127.538 144.357 127.52 144.257 127.52 144.15Z" fill="#939090"/>
<path d="M4.704 153.975V158.99H4.3645C4.31083 158.99 4.26533 158.981 4.228 158.962C4.193 158.943 4.158 158.912 4.123 158.868L1.2215 155.088C1.22617 155.146 1.22967 155.203 1.232 155.259C1.23433 155.315 1.2355 155.368 1.2355 155.417V158.99H0.6405V153.975H0.9905C1.02083 153.975 1.0465 153.977 1.0675 153.982C1.0885 153.984 1.10717 153.99 1.1235 153.999C1.13983 154.006 1.15617 154.018 1.1725 154.034C1.18883 154.048 1.20633 154.067 1.225 154.09L4.1265 157.867C4.12183 157.806 4.11717 157.748 4.1125 157.692C4.11017 157.633 4.109 157.578 4.109 157.527V153.975H4.704ZM7.65816 157.394C7.37116 157.403 7.12616 157.427 6.92316 157.464C6.7225 157.499 6.558 157.546 6.42966 157.604C6.30366 157.662 6.2115 157.731 6.15316 157.811C6.09716 157.89 6.06916 157.979 6.06916 158.077C6.06916 158.17 6.08433 158.25 6.11466 158.318C6.145 158.386 6.18583 158.442 6.23716 158.486C6.29083 158.528 6.35266 158.56 6.42266 158.581C6.495 158.599 6.572 158.609 6.65366 158.609C6.76333 158.609 6.86366 158.598 6.95466 158.577C7.04566 158.554 7.13083 158.521 7.21016 158.479C7.29183 158.437 7.36883 158.387 7.44116 158.329C7.51583 158.27 7.58816 158.204 7.65816 158.129V157.394ZM5.64566 155.945C5.84166 155.756 6.05283 155.615 6.27916 155.522C6.5055 155.428 6.75633 155.382 7.03166 155.382C7.23 155.382 7.40616 155.414 7.56016 155.48C7.71416 155.545 7.84366 155.636 7.94866 155.753C8.05366 155.869 8.133 156.01 8.18666 156.176C8.24033 156.342 8.26716 156.524 8.26716 156.722V158.99H7.99066C7.93 158.99 7.88333 158.981 7.85066 158.962C7.818 158.941 7.79233 158.901 7.77366 158.843L7.70366 158.507C7.61033 158.593 7.51933 158.67 7.43066 158.738C7.342 158.803 7.24866 158.859 7.15066 158.906C7.05266 158.95 6.94766 158.984 6.83566 159.008C6.726 159.033 6.6035 159.046 6.46816 159.046C6.3305 159.046 6.201 159.027 6.07966 158.99C5.95833 158.95 5.85216 158.892 5.76116 158.815C5.6725 158.738 5.60133 158.641 5.54766 158.525C5.49633 158.406 5.47066 158.266 5.47066 158.105C5.47066 157.965 5.50916 157.83 5.58616 157.702C5.66316 157.571 5.788 157.456 5.96066 157.356C6.13333 157.255 6.3585 157.174 6.63616 157.111C6.91383 157.045 7.2545 157.008 7.65816 156.999V156.722C7.65816 156.447 7.59866 156.239 7.47966 156.099C7.36066 155.957 7.18683 155.886 6.95816 155.886C6.80416 155.886 6.67466 155.905 6.56966 155.945C6.467 155.982 6.37716 156.026 6.30016 156.075C6.2255 156.121 6.16016 156.164 6.10416 156.204C6.0505 156.241 5.99683 156.26 5.94316 156.26C5.90116 156.26 5.865 156.25 5.83466 156.229C5.80433 156.205 5.77866 156.177 5.75766 156.145L5.64566 155.945ZM11.5262 156.288C11.4095 156.132 11.2835 156.023 11.1482 155.963C11.0128 155.9 10.8612 155.868 10.6932 155.868C10.3642 155.868 10.111 155.986 9.93366 156.222C9.75632 156.457 9.66766 156.793 9.66766 157.23C9.66766 157.461 9.68749 157.659 9.72716 157.825C9.76682 157.988 9.82516 158.123 9.90216 158.231C9.97916 158.336 10.0737 158.413 10.1857 158.462C10.2977 158.511 10.4248 158.535 10.5672 158.535C10.7725 158.535 10.951 158.488 11.1027 158.395C11.2567 158.302 11.3978 158.17 11.5262 158V156.288ZM12.1492 153.835V158.99H11.7782C11.6895 158.99 11.6335 158.947 11.6102 158.861L11.5542 158.43C11.4025 158.612 11.2298 158.759 11.0362 158.871C10.8425 158.983 10.6185 159.039 10.3642 159.039C10.1612 159.039 9.97682 159.001 9.81116 158.924C9.64549 158.844 9.50432 158.729 9.38766 158.577C9.27099 158.425 9.18116 158.236 9.11816 158.01C9.05516 157.784 9.02366 157.524 9.02366 157.23C9.02366 156.968 9.05866 156.726 9.12866 156.502C9.19866 156.275 9.29899 156.079 9.42966 155.914C9.56032 155.748 9.72016 155.618 9.90916 155.525C10.1005 155.429 10.3152 155.382 10.5532 155.382C10.7702 155.382 10.9557 155.419 11.1097 155.494C11.266 155.566 11.4048 155.667 11.5262 155.798V153.835H12.1492ZM15.0546 157.394C14.7676 157.403 14.5226 157.427 14.3196 157.464C14.119 157.499 13.9545 157.546 13.8261 157.604C13.7001 157.662 13.608 157.731 13.5496 157.811C13.4936 157.89 13.4656 157.979 13.4656 158.077C13.4656 158.17 13.4808 158.25 13.5111 158.318C13.5415 158.386 13.5823 158.442 13.6336 158.486C13.6873 158.528 13.7491 158.56 13.8191 158.581C13.8915 158.599 13.9685 158.609 14.0501 158.609C14.1598 158.609 14.2601 158.598 14.3511 158.577C14.4421 158.554 14.5273 158.521 14.6066 158.479C14.6883 158.437 14.7653 158.387 14.8376 158.329C14.9123 158.27 14.9846 158.204 15.0546 158.129V157.394ZM13.0421 155.945C13.2381 155.756 13.4493 155.615 13.6756 155.522C13.902 155.428 14.1528 155.382 14.4281 155.382C14.6265 155.382 14.8026 155.414 14.9566 155.48C15.1106 155.545 15.2401 155.636 15.3451 155.753C15.4501 155.869 15.5295 156.01 15.5831 156.176C15.6368 156.342 15.6636 156.524 15.6636 156.722V158.99H15.3871C15.3265 158.99 15.2798 158.981 15.2471 158.962C15.2145 158.941 15.1888 158.901 15.1701 158.843L15.1001 158.507C15.0068 158.593 14.9158 158.67 14.8271 158.738C14.7385 158.803 14.6451 158.859 14.5471 158.906C14.4491 158.95 14.3441 158.984 14.2321 159.008C14.1225 159.033 14 159.046 13.8646 159.046C13.727 159.046 13.5975 159.027 13.4761 158.99C13.3548 158.95 13.2486 158.892 13.1576 158.815C13.069 158.738 12.9978 158.641 12.9441 158.525C12.8928 158.406 12.8671 158.266 12.8671 158.105C12.8671 157.965 12.9056 157.83 12.9826 157.702C13.0596 157.571 13.1845 157.456 13.3571 157.356C13.5298 157.255 13.755 157.174 14.0326 157.111C14.3103 157.045 14.651 157.008 15.0546 156.999V156.722C15.0546 156.447 14.9951 156.239 14.8761 156.099C14.7571 155.957 14.5833 155.886 14.3546 155.886C14.2006 155.886 14.0711 155.905 13.9661 155.945C13.8635 155.982 13.7736 156.026 13.6966 156.075C13.622 156.121 13.5566 156.164 13.5006 156.204C13.447 156.241 13.3933 156.26 13.3396 156.26C13.2976 156.26 13.2615 156.25 13.2311 156.229C13.2008 156.205 13.1751 156.177 13.1541 156.145L13.0421 155.945ZM19.0302 158.136C19.1445 158.29 19.2693 158.399 19.4047 158.462C19.54 158.525 19.6917 158.556 19.8597 158.556C20.191 158.556 20.4453 158.438 20.6227 158.203C20.8 157.967 20.8887 157.631 20.8887 157.195C20.8887 156.964 20.8677 156.765 20.8257 156.6C20.786 156.434 20.7277 156.299 20.6507 156.194C20.5737 156.086 20.4792 156.008 20.3672 155.959C20.2552 155.91 20.128 155.886 19.9857 155.886C19.7827 155.886 19.6042 155.932 19.4502 156.026C19.2985 156.119 19.1585 156.251 19.0302 156.421V158.136ZM18.9987 155.994C19.148 155.81 19.3207 155.662 19.5167 155.55C19.7127 155.438 19.9367 155.382 20.1887 155.382C20.394 155.382 20.5795 155.421 20.7452 155.501C20.9108 155.578 21.052 155.693 21.1687 155.847C21.2853 155.999 21.3752 156.188 21.4382 156.414C21.5012 156.64 21.5327 156.901 21.5327 157.195C21.5327 157.456 21.4977 157.7 21.4277 157.926C21.3577 158.15 21.2562 158.345 21.1232 158.511C20.9925 158.674 20.8315 158.803 20.6402 158.899C20.4512 158.992 20.2377 159.039 19.9997 159.039C19.7827 159.039 19.596 159.003 19.4397 158.931C19.2857 158.856 19.1492 158.753 19.0302 158.623V160.191H18.4037V155.445H18.7782C18.8668 155.445 18.9217 155.488 18.9427 155.574L18.9987 155.994ZM23.822 155.389C24.081 155.389 24.3143 155.432 24.522 155.518C24.7297 155.604 24.907 155.727 25.054 155.886C25.201 156.044 25.313 156.237 25.39 156.463C25.4693 156.687 25.509 156.938 25.509 157.216C25.509 157.496 25.4693 157.748 25.39 157.972C25.313 158.196 25.201 158.387 25.054 158.546C24.907 158.704 24.7297 158.827 24.522 158.913C24.3143 158.997 24.081 159.039 23.822 159.039C23.5607 159.039 23.325 158.997 23.115 158.913C22.9073 158.827 22.73 158.704 22.583 158.546C22.436 158.387 22.3228 158.196 22.2435 157.972C22.1665 157.748 22.128 157.496 22.128 157.216C22.128 156.938 22.1665 156.687 22.2435 156.463C22.3228 156.237 22.436 156.044 22.583 155.886C22.73 155.727 22.9073 155.604 23.115 155.518C23.325 155.432 23.5607 155.389 23.822 155.389ZM23.822 158.553C24.172 158.553 24.4333 158.436 24.606 158.203C24.7787 157.967 24.865 157.639 24.865 157.219C24.865 156.797 24.7787 156.468 24.606 156.232C24.4333 155.996 24.172 155.879 23.822 155.879C23.6447 155.879 23.4895 155.909 23.3565 155.97C23.2258 156.03 23.1162 156.118 23.0275 156.232C22.9412 156.346 22.8758 156.488 22.8315 156.656C22.7895 156.821 22.7685 157.009 22.7685 157.219C22.7685 157.639 22.8548 157.967 23.0275 158.203C23.2025 158.436 23.4673 158.553 23.822 158.553ZM26.8907 156.155C27.0027 155.912 27.1403 155.723 27.3037 155.588C27.467 155.45 27.6665 155.382 27.9022 155.382C27.9768 155.382 28.048 155.39 28.1157 155.406C28.1857 155.422 28.2475 155.448 28.3012 155.483L28.2557 155.949C28.2417 156.007 28.2067 156.036 28.1507 156.036C28.118 156.036 28.0702 156.029 28.0072 156.015C27.9442 156.001 27.873 155.994 27.7937 155.994C27.6817 155.994 27.5813 156.01 27.4927 156.043C27.4063 156.076 27.3282 156.125 27.2582 156.19C27.1905 156.253 27.1287 156.332 27.0727 156.428C27.019 156.521 26.97 156.629 26.9257 156.75V158.99H26.2992V155.445H26.6562C26.7238 155.445 26.7705 155.457 26.7962 155.483C26.8218 155.509 26.8393 155.553 26.8487 155.616L26.8907 156.155ZM32.4111 157.394C32.1241 157.403 31.8791 157.427 31.6761 157.464C31.4754 157.499 31.3109 157.546 31.1826 157.604C31.0566 157.662 30.9644 157.731 30.9061 157.811C30.8501 157.89 30.8221 157.979 30.8221 158.077C30.8221 158.17 30.8373 158.25 30.8676 158.318C30.8979 158.386 30.9388 158.442 30.9901 158.486C31.0438 158.528 31.1056 158.56 31.1756 158.581C31.2479 158.599 31.3249 158.609 31.4066 158.609C31.5163 158.609 31.6166 158.598 31.7076 158.577C31.7986 158.554 31.8838 158.521 31.9631 158.479C32.0448 158.437 32.1218 158.387 32.1941 158.329C32.2688 158.27 32.3411 158.204 32.4111 158.129V157.394ZM30.3986 155.945C30.5946 155.756 30.8058 155.615 31.0321 155.522C31.2584 155.428 31.5093 155.382 31.7846 155.382C31.9829 155.382 32.1591 155.414 32.3131 155.48C32.4671 155.545 32.5966 155.636 32.7016 155.753C32.8066 155.869 32.8859 156.01 32.9396 156.176C32.9933 156.342 33.0201 156.524 33.0201 156.722V158.99H32.7436C32.6829 158.99 32.6363 158.981 32.6036 158.962C32.5709 158.941 32.5453 158.901 32.5266 158.843L32.4566 158.507C32.3633 158.593 32.2723 158.67 32.1836 158.738C32.0949 158.803 32.0016 158.859 31.9036 158.906C31.8056 158.95 31.7006 158.984 31.5886 159.008C31.4789 159.033 31.3564 159.046 31.2211 159.046C31.0834 159.046 30.9539 159.027 30.8326 158.99C30.7113 158.95 30.6051 158.892 30.5141 158.815C30.4254 158.738 30.3543 158.641 30.3006 158.525C30.2493 158.406 30.2236 158.266 30.2236 158.105C30.2236 157.965 30.2621 157.83 30.3391 157.702C30.4161 157.571 30.5409 157.456 30.7136 157.356C30.8863 157.255 31.1114 157.174 31.3891 157.111C31.6668 157.045 32.0074 157.008 32.4111 156.999V156.722C32.4111 156.447 32.3516 156.239 32.2326 156.099C32.1136 155.957 31.9398 155.886 31.7111 155.886C31.5571 155.886 31.4276 155.905 31.3226 155.945C31.2199 155.982 31.1301 156.026 31.0531 156.075C30.9784 156.121 30.9131 156.164 30.8571 156.204C30.8034 156.241 30.7498 156.26 30.6961 156.26C30.6541 156.26 30.6179 156.25 30.5876 156.229C30.5573 156.205 30.5316 156.177 30.5106 156.145L30.3986 155.945ZM36.2791 156.285C36.1671 156.135 36.0423 156.029 35.9046 155.966C35.7669 155.901 35.6141 155.868 35.4461 155.868C35.1171 155.868 34.8639 155.986 34.6866 156.222C34.5093 156.457 34.4206 156.793 34.4206 157.23C34.4206 157.461 34.4404 157.659 34.4801 157.825C34.5198 157.988 34.5781 158.123 34.6551 158.231C34.7321 158.336 34.8266 158.413 34.9386 158.462C35.0506 158.511 35.1778 158.535 35.3201 158.535C35.5254 158.535 35.7039 158.488 35.8556 158.395C36.0096 158.302 36.1508 158.17 36.2791 158V156.285ZM36.9021 155.445V160.191H36.2791V158.462C36.1321 158.634 35.9629 158.774 35.7716 158.882C35.5803 158.987 35.3621 159.039 35.1171 159.039C34.9141 159.039 34.7298 159.001 34.5641 158.924C34.3984 158.844 34.2573 158.729 34.1406 158.577C34.0239 158.425 33.9341 158.236 33.8711 158.01C33.8081 157.784 33.7766 157.524 33.7766 157.23C33.7766 156.968 33.8116 156.726 33.8816 156.502C33.9516 156.275 34.0519 156.079 34.1826 155.914C34.3133 155.748 34.4731 155.618 34.6621 155.525C34.8534 155.429 35.0681 155.382 35.3061 155.382C35.5371 155.382 35.7331 155.422 35.8941 155.504C36.0551 155.586 36.1974 155.7 36.3211 155.847L36.3631 155.574C36.3864 155.488 36.4424 155.445 36.5311 155.445H36.9021ZM40.8016 155.445V158.99H40.4306C40.3419 158.99 40.2859 158.947 40.2626 158.861L40.2136 158.479C40.0596 158.649 39.8869 158.787 39.6956 158.892C39.5042 158.995 39.2849 159.046 39.0376 159.046C38.8439 159.046 38.6724 159.015 38.5231 158.952C38.3761 158.886 38.2524 158.795 38.1521 158.679C38.0517 158.562 37.9759 158.421 37.9246 158.255C37.8756 158.089 37.8511 157.906 37.8511 157.706V155.445H38.4741V157.706C38.4741 157.974 38.5347 158.182 38.6561 158.329C38.7797 158.476 38.9676 158.549 39.2196 158.549C39.4039 158.549 39.5754 158.506 39.7341 158.42C39.8951 158.331 40.0432 158.21 40.1786 158.056V155.445H40.8016ZM42.4474 155.445V158.99H41.8244V155.445H42.4474ZM42.5804 154.332C42.5804 154.392 42.5676 154.449 42.5419 154.503C42.5186 154.554 42.4859 154.601 42.4439 154.643C42.4042 154.683 42.3564 154.714 42.3004 154.738C42.2467 154.761 42.1896 154.773 42.1289 154.773C42.0682 154.773 42.0111 154.761 41.9574 154.738C41.9061 154.714 41.8606 154.683 41.8209 154.643C41.7812 154.601 41.7497 154.554 41.7264 154.503C41.7031 154.449 41.6914 154.392 41.6914 154.332C41.6914 154.271 41.7031 154.214 41.7264 154.16C41.7497 154.104 41.7812 154.056 41.8209 154.017C41.8606 153.975 41.9061 153.942 41.9574 153.919C42.0111 153.895 42.0682 153.884 42.1289 153.884C42.1896 153.884 42.2467 153.895 42.3004 153.919C42.3564 153.942 42.4042 153.975 42.4439 154.017C42.4859 154.056 42.5186 154.104 42.5419 154.16C42.5676 154.214 42.5804 154.271 42.5804 154.332ZM43.366 158.605C43.366 158.544 43.3765 158.487 43.3975 158.434C43.4209 158.38 43.4512 158.333 43.4885 158.294C43.5282 158.254 43.5749 158.222 43.6285 158.199C43.6822 158.176 43.7394 158.164 43.8 158.164C43.8607 158.164 43.9179 158.176 43.9715 158.199C44.0252 158.222 44.0719 158.254 44.1115 158.294C44.1512 158.333 44.1827 158.38 44.206 158.434C44.2294 158.487 44.241 158.544 44.241 158.605C44.241 158.668 44.2294 158.726 44.206 158.78C44.1827 158.831 44.1512 158.877 44.1115 158.917C44.0719 158.956 44.0252 158.987 43.9715 159.008C43.9179 159.031 43.8607 159.043 43.8 159.043C43.7394 159.043 43.6822 159.031 43.6285 159.008C43.5749 158.987 43.5282 158.956 43.4885 158.917C43.4512 158.877 43.4209 158.831 43.3975 158.78C43.3765 158.726 43.366 158.668 43.366 158.605ZM45.0203 158.605C45.0203 158.544 45.0308 158.487 45.0518 158.434C45.0752 158.38 45.1055 158.333 45.1428 158.294C45.1825 158.254 45.2292 158.222 45.2828 158.199C45.3365 158.176 45.3937 158.164 45.4543 158.164C45.515 158.164 45.5722 158.176 45.6258 158.199C45.6795 158.222 45.7262 158.254 45.7658 158.294C45.8055 158.333 45.837 158.38 45.8603 158.434C45.8837 158.487 45.8953 158.544 45.8953 158.605C45.8953 158.668 45.8837 158.726 45.8603 158.78C45.837 158.831 45.8055 158.877 45.7658 158.917C45.7262 158.956 45.6795 158.987 45.6258 159.008C45.5722 159.031 45.515 159.043 45.4543 159.043C45.3937 159.043 45.3365 159.031 45.2828 159.008C45.2292 158.987 45.1825 158.956 45.1428 158.917C45.1055 158.877 45.0752 158.831 45.0518 158.78C45.0308 158.726 45.0203 158.668 45.0203 158.605ZM46.6746 158.605C46.6746 158.544 46.6851 158.487 46.7061 158.434C46.7295 158.38 46.7598 158.333 46.7971 158.294C46.8368 158.254 46.8835 158.222 46.9371 158.199C46.9908 158.176 47.048 158.164 47.1086 158.164C47.1693 158.164 47.2265 158.176 47.2801 158.199C47.3338 158.222 47.3805 158.254 47.4201 158.294C47.4598 158.333 47.4913 158.38 47.5146 158.434C47.538 158.487 47.5496 158.544 47.5496 158.605C47.5496 158.668 47.538 158.726 47.5146 158.78C47.4913 158.831 47.4598 158.877 47.4201 158.917C47.3805 158.956 47.3338 158.987 47.2801 159.008C47.2265 159.031 47.1693 159.043 47.1086 159.043C47.048 159.043 46.9908 159.031 46.9371 159.008C46.8835 158.987 46.8368 158.956 46.7971 158.917C46.7598 158.877 46.7295 158.831 46.7061 158.78C46.6851 158.726 46.6746 158.668 46.6746 158.605ZM54.4354 153.975V158.99H54.0959C54.0423 158.99 53.9968 158.981 53.9594 158.962C53.9244 158.943 53.8894 158.912 53.8544 158.868L50.9529 155.088C50.9576 155.146 50.9611 155.203 50.9634 155.259C50.9658 155.315 50.9669 155.368 50.9669 155.417V158.99H50.3719V153.975H50.7219C50.7523 153.975 50.7779 153.977 50.7989 153.982C50.8199 153.984 50.8386 153.99 50.8549 153.999C50.8713 154.006 50.8876 154.018 50.9039 154.034C50.9203 154.048 50.9378 154.067 50.9564 154.09L53.8579 157.867C53.8533 157.806 53.8486 157.748 53.8439 157.692C53.8416 157.633 53.8404 157.578 53.8404 157.527V153.975H54.4354ZM57.3896 157.394C57.1026 157.403 56.8576 157.427 56.6546 157.464C56.4539 157.499 56.2894 157.546 56.1611 157.604C56.0351 157.662 55.9429 157.731 55.8846 157.811C55.8286 157.89 55.8006 157.979 55.8006 158.077C55.8006 158.17 55.8158 158.25 55.8461 158.318C55.8764 158.386 55.9173 158.442 55.9686 158.486C56.0223 158.528 56.0841 158.56 56.1541 158.581C56.2264 158.599 56.3034 158.609 56.3851 158.609C56.4948 158.609 56.5951 158.598 56.6861 158.577C56.7771 158.554 56.8623 158.521 56.9416 158.479C57.0233 158.437 57.1003 158.387 57.1726 158.329C57.2473 158.27 57.3196 158.204 57.3896 158.129V157.394ZM55.3771 155.945C55.5731 155.756 55.7843 155.615 56.0106 155.522C56.2369 155.428 56.4878 155.382 56.7631 155.382C56.9614 155.382 57.1376 155.414 57.2916 155.48C57.4456 155.545 57.5751 155.636 57.6801 155.753C57.7851 155.869 57.8644 156.01 57.9181 156.176C57.9718 156.342 57.9986 156.524 57.9986 156.722V158.99H57.7221C57.6614 158.99 57.6148 158.981 57.5821 158.962C57.5494 158.941 57.5238 158.901 57.5051 158.843L57.4351 158.507C57.3418 158.593 57.2508 158.67 57.1621 158.738C57.0734 158.803 56.9801 158.859 56.8821 158.906C56.7841 158.95 56.6791 158.984 56.5671 159.008C56.4574 159.033 56.3349 159.046 56.1996 159.046C56.0619 159.046 55.9324 159.027 55.8111 158.99C55.6898 158.95 55.5836 158.892 55.4926 158.815C55.4039 158.738 55.3328 158.641 55.2791 158.525C55.2278 158.406 55.2021 158.266 55.2021 158.105C55.2021 157.965 55.2406 157.83 55.3176 157.702C55.3946 157.571 55.5194 157.456 55.6921 157.356C55.8648 157.255 56.0899 157.174 56.3676 157.111C56.6453 157.045 56.9859 157.008 57.3896 156.999V156.722C57.3896 156.447 57.3301 156.239 57.2111 156.099C57.0921 155.957 56.9183 155.886 56.6896 155.886C56.5356 155.886 56.4061 155.905 56.3011 155.945C56.1984 155.982 56.1086 156.026 56.0316 156.075C55.9569 156.121 55.8916 156.164 55.8356 156.204C55.7819 156.241 55.7283 156.26 55.6746 156.26C55.6326 156.26 55.5964 156.25 55.5661 156.229C55.5358 156.205 55.5101 156.177 55.4891 156.145L55.3771 155.945ZM61.9104 155.445L60.4649 158.99H59.9049L58.4594 155.445H58.9669C59.0182 155.445 59.0602 155.457 59.0929 155.483C59.1256 155.509 59.1477 155.539 59.1594 155.574L60.0589 157.856C60.0869 157.942 60.1114 158.026 60.1324 158.108C60.1534 158.19 60.1732 158.271 60.1919 158.353C60.2106 158.271 60.2304 158.19 60.2514 158.108C60.2724 158.026 60.2981 157.942 60.3284 157.856L61.2384 155.574C61.2524 155.537 61.2757 155.506 61.3084 155.483C61.3411 155.457 61.3796 155.445 61.4239 155.445H61.9104ZM64.7591 156.831C64.7591 156.686 64.7381 156.554 64.6961 156.435C64.6564 156.314 64.5969 156.21 64.5176 156.124C64.4406 156.035 64.3461 155.967 64.2341 155.921C64.1221 155.872 63.9949 155.847 63.8526 155.847C63.5539 155.847 63.3171 155.935 63.1421 156.11C62.9694 156.282 62.8621 156.523 62.8201 156.831H64.7591ZM65.2631 158.493C65.1861 158.586 65.0939 158.668 64.9866 158.738C64.8792 158.806 64.7637 158.862 64.6401 158.906C64.5187 158.95 64.3927 158.983 64.2621 159.004C64.1314 159.027 64.0019 159.039 63.8736 159.039C63.6286 159.039 63.4022 158.998 63.1946 158.917C62.9892 158.833 62.8107 158.711 62.6591 158.553C62.5097 158.392 62.3931 158.193 62.3091 157.958C62.2251 157.722 62.1831 157.451 62.1831 157.146C62.1831 156.898 62.2204 156.667 62.2951 156.453C62.3721 156.238 62.4817 156.052 62.6241 155.896C62.7664 155.737 62.9402 155.614 63.1456 155.525C63.3509 155.434 63.5819 155.389 63.8386 155.389C64.0509 155.389 64.2469 155.425 64.4266 155.497C64.6086 155.567 64.7649 155.67 64.8956 155.805C65.0286 155.938 65.1324 156.104 65.2071 156.302C65.2817 156.498 65.3191 156.722 65.3191 156.974C65.3191 157.072 65.3086 157.137 65.2876 157.17C65.2666 157.203 65.2269 157.219 65.1686 157.219H62.7991C62.8061 157.443 62.8364 157.638 62.8901 157.804C62.9461 157.969 63.0231 158.108 63.1211 158.22C63.2191 158.33 63.3357 158.413 63.4711 158.469C63.6064 158.522 63.7581 158.549 63.9261 158.549C64.0824 158.549 64.2166 158.532 64.3286 158.497C64.4429 158.459 64.5409 158.42 64.6226 158.378C64.7042 158.336 64.7719 158.297 64.8256 158.262C64.8816 158.225 64.9294 158.206 64.9691 158.206C65.0204 158.206 65.0601 158.226 65.0881 158.266L65.2631 158.493ZM67.3198 157.258C67.4458 157.258 67.5567 157.24 67.6523 157.205C67.748 157.17 67.8285 157.121 67.8938 157.058C67.9592 156.995 68.0082 156.92 68.0408 156.834C68.0735 156.745 68.0898 156.649 68.0898 156.544C68.0898 156.327 68.0233 156.154 67.8903 156.026C67.7597 155.897 67.5695 155.833 67.3198 155.833C67.0678 155.833 66.8753 155.897 66.7423 156.026C66.6117 156.154 66.5463 156.327 66.5463 156.544C66.5463 156.649 66.5627 156.745 66.5953 156.834C66.6303 156.92 66.6805 156.995 66.7458 157.058C66.8112 157.121 66.8917 157.17 66.9873 157.205C67.083 157.24 67.1938 157.258 67.3198 157.258ZM68.4433 159.183C68.4433 159.096 68.4188 159.026 68.3698 158.973C68.3208 158.919 68.2543 158.877 68.1703 158.847C68.0887 158.816 67.993 158.795 67.8833 158.784C67.7737 158.77 67.657 158.759 67.5333 158.752C67.412 158.745 67.2883 158.738 67.1623 158.731C67.0363 158.724 66.915 158.712 66.7983 158.696C66.6677 158.757 66.5603 158.834 66.4763 158.927C66.3947 159.018 66.3538 159.125 66.3538 159.249C66.3538 159.328 66.3737 159.402 66.4133 159.47C66.4553 159.54 66.5183 159.599 66.6023 159.648C66.6863 159.699 66.7913 159.739 66.9173 159.767C67.0457 159.797 67.1962 159.813 67.3688 159.813C67.5368 159.813 67.6873 159.797 67.8203 159.767C67.9533 159.737 68.0653 159.694 68.1563 159.638C68.2497 159.582 68.3208 159.515 68.3698 159.438C68.4188 159.361 68.4433 159.276 68.4433 159.183ZM69.0768 155.585V155.816C69.0768 155.893 69.0278 155.942 68.9298 155.963L68.5273 156.015C68.6067 156.169 68.6463 156.339 68.6463 156.526C68.6463 156.699 68.6125 156.856 68.5448 156.999C68.4795 157.139 68.3885 157.259 68.2718 157.359C68.1552 157.459 68.0152 157.536 67.8518 157.59C67.6885 157.644 67.5112 157.671 67.3198 157.671C67.1542 157.671 66.9978 157.651 66.8508 157.611C66.7762 157.658 66.719 157.708 66.6793 157.762C66.6397 157.813 66.6198 157.865 66.6198 157.919C66.6198 158.003 66.6537 158.067 66.7213 158.112C66.7913 158.154 66.8823 158.184 66.9943 158.203C67.1063 158.221 67.2335 158.233 67.3758 158.238C67.5205 158.242 67.6675 158.25 67.8168 158.262C67.9685 158.271 68.1155 158.289 68.2578 158.315C68.4025 158.34 68.5308 158.382 68.6428 158.441C68.7548 158.499 68.8447 158.579 68.9123 158.682C68.9823 158.785 69.0173 158.918 69.0173 159.081C69.0173 159.233 68.9788 159.38 68.9018 159.522C68.8272 159.664 68.7187 159.79 68.5763 159.9C68.434 160.012 68.259 160.101 68.0513 160.166C67.846 160.234 67.6138 160.268 67.3548 160.268C67.0958 160.268 66.8695 160.242 66.6758 160.191C66.4822 160.139 66.3212 160.07 66.1928 159.984C66.0645 159.898 65.9677 159.797 65.9023 159.683C65.8393 159.571 65.8078 159.453 65.8078 159.33C65.8078 159.155 65.8627 159.006 65.9723 158.885C66.082 158.764 66.2325 158.667 66.4238 158.595C66.3188 158.548 66.2348 158.486 66.1718 158.409C66.1112 158.33 66.0808 158.224 66.0808 158.091C66.0808 158.039 66.0902 157.987 66.1088 157.933C66.1275 157.877 66.1555 157.822 66.1928 157.769C66.2325 157.713 66.2803 157.66 66.3363 157.611C66.3923 157.562 66.4577 157.519 66.5323 157.482C66.3573 157.384 66.2208 157.254 66.1228 157.093C66.0248 156.93 65.9758 156.741 65.9758 156.526C65.9758 156.353 66.0085 156.197 66.0738 156.057C66.1415 155.915 66.2348 155.795 66.3538 155.697C66.4728 155.596 66.614 155.519 66.7773 155.466C66.943 155.412 67.1238 155.385 67.3198 155.385C67.4738 155.385 67.6173 155.403 67.7503 155.438C67.8833 155.47 68.0047 155.519 68.1143 155.585H69.0768ZM72.6365 155.445V158.99H72.2655C72.1769 158.99 72.1209 158.947 72.0975 158.861L72.0485 158.479C71.8945 158.649 71.7219 158.787 71.5305 158.892C71.3392 158.995 71.1199 159.046 70.8725 159.046C70.6789 159.046 70.5074 159.015 70.358 158.952C70.211 158.886 70.0874 158.795 69.987 158.679C69.8867 158.562 69.8109 158.421 69.7595 158.255C69.7105 158.089 69.686 157.906 69.686 157.706V155.445H70.309V157.706C70.309 157.974 70.3697 158.182 70.491 158.329C70.6147 158.476 70.8025 158.549 71.0545 158.549C71.2389 158.549 71.4104 158.506 71.569 158.42C71.73 158.331 71.8782 158.21 72.0135 158.056V155.445H72.6365ZM75.9974 156.831C75.9974 156.686 75.9764 156.554 75.9344 156.435C75.8947 156.314 75.8352 156.21 75.7559 156.124C75.6789 156.035 75.5844 155.967 75.4724 155.921C75.3604 155.872 75.2332 155.847 75.0909 155.847C74.7922 155.847 74.5554 155.935 74.3804 156.11C74.2077 156.282 74.1004 156.523 74.0584 156.831H75.9974ZM76.5014 158.493C76.4244 158.586 76.3322 158.668 76.2249 158.738C76.1175 158.806 76.002 158.862 75.8784 158.906C75.757 158.95 75.631 158.983 75.5004 159.004C75.3697 159.027 75.2402 159.039 75.1119 159.039C74.8669 159.039 74.6405 158.998 74.4329 158.917C74.2275 158.833 74.049 158.711 73.8974 158.553C73.748 158.392 73.6314 158.193 73.5474 157.958C73.4634 157.722 73.4214 157.451 73.4214 157.146C73.4214 156.898 73.4587 156.667 73.5334 156.453C73.6104 156.238 73.72 156.052 73.8624 155.896C74.0047 155.737 74.1785 155.614 74.3839 155.525C74.5892 155.434 74.8202 155.389 75.0769 155.389C75.2892 155.389 75.4852 155.425 75.6649 155.497C75.8469 155.567 76.0032 155.67 76.1339 155.805C76.2669 155.938 76.3707 156.104 76.4454 156.302C76.52 156.498 76.5574 156.722 76.5574 156.974C76.5574 157.072 76.5469 157.137 76.5259 157.17C76.5049 157.203 76.4652 157.219 76.4069 157.219H74.0374C74.0444 157.443 74.0747 157.638 74.1284 157.804C74.1844 157.969 74.2614 158.108 74.3594 158.22C74.4574 158.33 74.574 158.413 74.7094 158.469C74.8447 158.522 74.9964 158.549 75.1644 158.549C75.3207 158.549 75.4549 158.532 75.5669 158.497C75.6812 158.459 75.7792 158.42 75.8609 158.378C75.9425 158.336 76.0102 158.297 76.0639 158.262C76.1199 158.225 76.1677 158.206 76.2074 158.206C76.2587 158.206 76.2984 158.226 76.3264 158.266L76.5014 158.493ZM81.4866 156.831C81.4866 156.686 81.4656 156.554 81.4236 156.435C81.384 156.314 81.3245 156.21 81.2451 156.124C81.1681 156.035 81.0736 155.967 80.9616 155.921C80.8496 155.872 80.7225 155.847 80.5801 155.847C80.2815 155.847 80.0446 155.935 79.8696 156.11C79.697 156.282 79.5896 156.523 79.5476 156.831H81.4866ZM81.9906 158.493C81.9136 158.586 81.8215 158.668 81.7141 158.738C81.6068 158.806 81.4913 158.862 81.3676 158.906C81.2463 158.95 81.1203 158.983 80.9896 159.004C80.859 159.027 80.7295 159.039 80.6011 159.039C80.3561 159.039 80.1298 158.998 79.9221 158.917C79.7168 158.833 79.5383 158.711 79.3866 158.553C79.2373 158.392 79.1206 158.193 79.0366 157.958C78.9526 157.722 78.9106 157.451 78.9106 157.146C78.9106 156.898 78.948 156.667 79.0226 156.453C79.0996 156.238 79.2093 156.052 79.3516 155.896C79.494 155.737 79.6678 155.614 79.8731 155.525C80.0785 155.434 80.3095 155.389 80.5661 155.389C80.7785 155.389 80.9745 155.425 81.1541 155.497C81.3361 155.567 81.4925 155.67 81.6231 155.805C81.7561 155.938 81.86 156.104 81.9346 156.302C82.0093 156.498 82.0466 156.722 82.0466 156.974C82.0466 157.072 82.0361 157.137 82.0151 157.17C81.9941 157.203 81.9545 157.219 81.8961 157.219H79.5266C79.5336 157.443 79.564 157.638 79.6176 157.804C79.6736 157.969 79.7506 158.108 79.8486 158.22C79.9466 158.33 80.0633 158.413 80.1986 158.469C80.334 158.522 80.4856 158.549 80.6536 158.549C80.81 158.549 80.9441 158.532 81.0561 158.497C81.1705 158.459 81.2685 158.42 81.3501 158.378C81.4318 158.336 81.4995 158.297 81.5531 158.262C81.6091 158.225 81.657 158.206 81.6966 158.206C81.748 158.206 81.7876 158.226 81.8156 158.266L81.9906 158.493ZM85.2294 158.136C85.3437 158.29 85.4685 158.399 85.6039 158.462C85.7392 158.525 85.8909 158.556 86.0589 158.556C86.3902 158.556 86.6445 158.438 86.8219 158.203C86.9992 157.967 87.0879 157.631 87.0879 157.195C87.0879 156.964 87.0669 156.765 87.0249 156.6C86.9852 156.434 86.9269 156.299 86.8499 156.194C86.7729 156.086 86.6784 156.008 86.5664 155.959C86.4544 155.91 86.3272 155.886 86.1849 155.886C85.9819 155.886 85.8034 155.932 85.6494 156.026C85.4977 156.119 85.3577 156.251 85.2294 156.421V158.136ZM85.1979 155.994C85.3472 155.81 85.5199 155.662 85.7159 155.55C85.9119 155.438 86.1359 155.382 86.3879 155.382C86.5932 155.382 86.7787 155.421 86.9444 155.501C87.11 155.578 87.2512 155.693 87.3679 155.847C87.4845 155.999 87.5744 156.188 87.6374 156.414C87.7004 156.64 87.7319 156.901 87.7319 157.195C87.7319 157.456 87.6969 157.7 87.6269 157.926C87.5569 158.15 87.4554 158.345 87.3224 158.511C87.1917 158.674 87.0307 158.803 86.8394 158.899C86.6504 158.992 86.4369 159.039 86.1989 159.039C85.9819 159.039 85.7952 159.003 85.6389 158.931C85.4849 158.856 85.3484 158.753 85.2294 158.623V160.191H84.6029V155.445H84.9774C85.066 155.445 85.1209 155.488 85.1419 155.574L85.1979 155.994ZM89.1182 156.155C89.2302 155.912 89.3679 155.723 89.5312 155.588C89.6945 155.45 89.894 155.382 90.1297 155.382C90.2044 155.382 90.2755 155.39 90.3432 155.406C90.4132 155.422 90.475 155.448 90.5287 155.483L90.4832 155.949C90.4692 156.007 90.4342 156.036 90.3782 156.036C90.3455 156.036 90.2977 156.029 90.2347 156.015C90.1717 156.001 90.1005 155.994 90.0212 155.994C89.9092 155.994 89.8089 156.01 89.7202 156.043C89.6339 156.076 89.5557 156.125 89.4857 156.19C89.418 156.253 89.3562 156.332 89.3002 156.428C89.2465 156.521 89.1975 156.629 89.1532 156.75V158.99H88.5267V155.445H88.8837C88.9514 155.445 88.998 155.457 89.0237 155.483C89.0494 155.509 89.0669 155.553 89.0762 155.616L89.1182 156.155ZM93.306 156.831C93.306 156.686 93.285 156.554 93.243 156.435C93.2033 156.314 93.1438 156.21 93.0645 156.124C92.9875 156.035 92.893 155.967 92.781 155.921C92.669 155.872 92.5418 155.847 92.3995 155.847C92.1008 155.847 91.864 155.935 91.689 156.11C91.5163 156.282 91.409 156.523 91.367 156.831H93.306ZM93.81 158.493C93.733 158.586 93.6408 158.668 93.5335 158.738C93.4261 158.806 93.3106 158.862 93.187 158.906C93.0656 158.95 92.9396 158.983 92.809 159.004C92.6783 159.027 92.5488 159.039 92.4205 159.039C92.1755 159.039 91.9491 158.998 91.7415 158.917C91.5361 158.833 91.3576 158.711 91.206 158.553C91.0566 158.392 90.94 158.193 90.856 157.958C90.772 157.722 90.73 157.451 90.73 157.146C90.73 156.898 90.7673 156.667 90.842 156.453C90.919 156.238 91.0286 156.052 91.171 155.896C91.3133 155.737 91.4871 155.614 91.6925 155.525C91.8978 155.434 92.1288 155.389 92.3855 155.389C92.5978 155.389 92.7938 155.425 92.9735 155.497C93.1555 155.567 93.3118 155.67 93.4425 155.805C93.5755 155.938 93.6793 156.104 93.754 156.302C93.8286 156.498 93.866 156.722 93.866 156.974C93.866 157.072 93.8555 157.137 93.8345 157.17C93.8135 157.203 93.7738 157.219 93.7155 157.219H91.346C91.353 157.443 91.3833 157.638 91.437 157.804C91.493 157.969 91.57 158.108 91.668 158.22C91.766 158.33 91.8826 158.413 92.018 158.469C92.1533 158.522 92.305 158.549 92.473 158.549C92.6293 158.549 92.7635 158.532 92.8755 158.497C92.9898 158.459 93.0878 158.42 93.1695 158.378C93.2511 158.336 93.3188 158.297 93.3725 158.262C93.4285 158.225 93.4763 158.206 93.516 158.206C93.5673 158.206 93.607 158.226 93.635 158.266L93.81 158.493ZM97.0042 156.831C97.0042 156.686 96.9832 156.554 96.9412 156.435C96.9015 156.314 96.842 156.21 96.7627 156.124C96.6857 156.035 96.5912 155.967 96.4792 155.921C96.3672 155.872 96.24 155.847 96.0977 155.847C95.799 155.847 95.5622 155.935 95.3872 156.11C95.2145 156.282 95.1072 156.523 95.0652 156.831H97.0042ZM97.5082 158.493C97.4312 158.586 97.339 158.668 97.2317 158.738C97.1244 158.806 97.0089 158.862 96.8852 158.906C96.7639 158.95 96.6379 158.983 96.5072 159.004C96.3765 159.027 96.247 159.039 96.1187 159.039C95.8737 159.039 95.6474 158.998 95.4397 158.917C95.2344 158.833 95.0559 158.711 94.9042 158.553C94.7549 158.392 94.6382 158.193 94.5542 157.958C94.4702 157.722 94.4282 157.451 94.4282 157.146C94.4282 156.898 94.4655 156.667 94.5402 156.453C94.6172 156.238 94.7269 156.052 94.8692 155.896C95.0115 155.737 95.1854 155.614 95.3907 155.525C95.596 155.434 95.827 155.389 96.0837 155.389C96.296 155.389 96.492 155.425 96.6717 155.497C96.8537 155.567 97.01 155.67 97.1407 155.805C97.2737 155.938 97.3775 156.104 97.4522 156.302C97.5269 156.498 97.5642 156.722 97.5642 156.974C97.5642 157.072 97.5537 157.137 97.5327 157.17C97.5117 157.203 97.472 157.219 97.4137 157.219H95.0442C95.0512 157.443 95.0815 157.638 95.1352 157.804C95.1912 157.969 95.2682 158.108 95.3662 158.22C95.4642 158.33 95.5809 158.413 95.7162 158.469C95.8515 158.522 96.0032 158.549 96.1712 158.549C96.3275 158.549 96.4617 158.532 96.5737 158.497C96.688 158.459 96.786 158.42 96.8677 158.378C96.9494 158.336 97.017 158.297 97.0707 158.262C97.1267 158.225 97.1745 158.206 97.2142 158.206C97.2655 158.206 97.3052 158.226 97.3332 158.266L97.5082 158.493ZM98.9174 155.959C98.9944 155.873 99.0761 155.795 99.1624 155.725C99.2488 155.655 99.3398 155.595 99.4354 155.546C99.5334 155.495 99.6361 155.456 99.7434 155.431C99.8531 155.403 99.9709 155.389 100.097 155.389C100.291 155.389 100.461 155.421 100.608 155.487C100.757 155.55 100.881 155.641 100.979 155.76C101.079 155.876 101.155 156.017 101.206 156.183C101.258 156.349 101.283 156.532 101.283 156.733V158.99H100.657V156.733C100.657 156.464 100.595 156.257 100.471 156.11C100.35 155.96 100.165 155.886 99.9149 155.886C99.7306 155.886 99.5579 155.93 99.3969 156.019C99.2383 156.107 99.0913 156.227 98.9559 156.379V158.99H98.3294V155.445H98.7039C98.7926 155.445 98.8474 155.488 98.8684 155.574L98.9174 155.959ZM104.7 156.075C104.682 156.1 104.663 156.12 104.644 156.134C104.626 156.148 104.6 156.155 104.567 156.155C104.532 156.155 104.494 156.141 104.452 156.113C104.41 156.083 104.357 156.05 104.294 156.015C104.234 155.98 104.158 155.949 104.067 155.921C103.978 155.89 103.868 155.875 103.738 155.875C103.563 155.875 103.409 155.907 103.276 155.97C103.143 156.03 103.031 156.119 102.94 156.236C102.851 156.352 102.783 156.493 102.737 156.659C102.692 156.825 102.67 157.01 102.67 157.216C102.67 157.43 102.695 157.622 102.744 157.79C102.793 157.955 102.862 158.095 102.95 158.21C103.041 158.322 103.15 158.408 103.276 158.469C103.404 158.527 103.548 158.556 103.706 158.556C103.858 158.556 103.983 158.539 104.081 158.504C104.179 158.466 104.259 158.425 104.322 158.381C104.388 158.337 104.441 158.297 104.483 158.262C104.528 158.225 104.571 158.206 104.613 158.206C104.664 158.206 104.704 158.226 104.732 158.266L104.907 158.493C104.83 158.589 104.742 158.67 104.644 158.738C104.546 158.806 104.44 158.863 104.326 158.91C104.214 158.954 104.096 158.987 103.972 159.008C103.849 159.029 103.723 159.039 103.594 159.039C103.373 159.039 103.166 158.998 102.975 158.917C102.786 158.835 102.621 158.717 102.481 158.563C102.341 158.407 102.232 158.215 102.152 157.989C102.073 157.763 102.033 157.505 102.033 157.216C102.033 156.952 102.069 156.708 102.142 156.484C102.216 156.26 102.324 156.068 102.464 155.907C102.606 155.743 102.78 155.616 102.985 155.525C103.193 155.434 103.431 155.389 103.699 155.389C103.949 155.389 104.168 155.429 104.357 155.511C104.549 155.59 104.718 155.704 104.865 155.851L104.7 156.075ZM106.202 155.917C106.354 155.756 106.522 155.628 106.706 155.532C106.89 155.436 107.103 155.389 107.343 155.389C107.537 155.389 107.707 155.421 107.854 155.487C108.003 155.55 108.127 155.641 108.225 155.76C108.325 155.876 108.401 156.017 108.453 156.183C108.504 156.349 108.53 156.532 108.53 156.733V158.99H107.903V156.733C107.903 156.464 107.841 156.257 107.718 156.11C107.596 155.96 107.411 155.886 107.161 155.886C106.977 155.886 106.804 155.93 106.643 156.019C106.484 156.107 106.337 156.227 106.202 156.379V158.99H105.576V153.835H106.202V155.917ZM111.4 157.394C111.113 157.403 110.868 157.427 110.665 157.464C110.465 157.499 110.3 157.546 110.172 157.604C110.046 157.662 109.954 157.731 109.895 157.811C109.839 157.89 109.811 157.979 109.811 158.077C109.811 158.17 109.827 158.25 109.857 158.318C109.887 158.386 109.928 158.442 109.979 158.486C110.033 158.528 110.095 158.56 110.165 158.581C110.237 158.599 110.314 158.609 110.396 158.609C110.506 158.609 110.606 158.598 110.697 158.577C110.788 158.554 110.873 158.521 110.952 158.479C111.034 158.437 111.111 158.387 111.183 158.329C111.258 158.27 111.33 158.204 111.4 158.129V157.394ZM109.388 155.945C109.584 155.756 109.795 155.615 110.021 155.522C110.248 155.428 110.499 155.382 110.774 155.382C110.972 155.382 111.148 155.414 111.302 155.48C111.456 155.545 111.586 155.636 111.691 155.753C111.796 155.869 111.875 156.01 111.929 156.176C111.983 156.342 112.009 156.524 112.009 156.722V158.99H111.733C111.672 158.99 111.626 158.981 111.593 158.962C111.56 158.941 111.535 158.901 111.516 158.843L111.446 158.507C111.353 158.593 111.262 158.67 111.173 158.738C111.084 158.803 110.991 158.859 110.893 158.906C110.795 158.95 110.69 158.984 110.578 159.008C110.468 159.033 110.346 159.046 110.21 159.046C110.073 159.046 109.943 159.027 109.822 158.99C109.701 158.95 109.594 158.892 109.503 158.815C109.415 158.738 109.344 158.641 109.29 158.525C109.239 158.406 109.213 158.266 109.213 158.105C109.213 157.965 109.251 157.83 109.328 157.702C109.405 157.571 109.53 157.456 109.703 157.356C109.876 157.255 110.101 157.174 110.378 157.111C110.656 157.045 110.997 157.008 111.4 156.999V156.722C111.4 156.447 111.341 156.239 111.222 156.099C111.103 155.957 110.929 155.886 110.7 155.886C110.546 155.886 110.417 155.905 110.312 155.945C110.209 155.982 110.119 156.026 110.042 156.075C109.968 156.121 109.902 156.164 109.846 156.204C109.793 156.241 109.739 156.26 109.685 156.26C109.643 156.26 109.607 156.25 109.577 156.229C109.547 156.205 109.521 156.177 109.5 156.145L109.388 155.945ZM116.814 156.029C116.786 156.08 116.743 156.106 116.685 156.106C116.65 156.106 116.61 156.093 116.566 156.068C116.522 156.042 116.467 156.014 116.401 155.984C116.338 155.951 116.263 155.922 116.174 155.896C116.085 155.868 115.98 155.854 115.859 155.854C115.754 155.854 115.659 155.868 115.575 155.896C115.491 155.922 115.419 155.958 115.358 156.005C115.3 156.051 115.255 156.106 115.222 156.169C115.192 156.23 115.176 156.296 115.176 156.369C115.176 156.46 115.202 156.535 115.253 156.596C115.307 156.657 115.377 156.709 115.463 156.754C115.55 156.798 115.648 156.838 115.757 156.873C115.867 156.905 115.979 156.941 116.093 156.981C116.21 157.018 116.323 157.06 116.433 157.107C116.543 157.154 116.641 157.212 116.727 157.282C116.813 157.352 116.882 157.438 116.933 157.541C116.987 157.641 117.014 157.763 117.014 157.905C117.014 158.068 116.985 158.22 116.926 158.36C116.868 158.498 116.782 158.618 116.667 158.721C116.553 158.821 116.413 158.9 116.247 158.959C116.082 159.017 115.89 159.046 115.673 159.046C115.426 159.046 115.202 159.006 115.001 158.927C114.801 158.845 114.63 158.742 114.49 158.616L114.637 158.378C114.656 158.347 114.678 158.324 114.704 158.308C114.73 158.291 114.762 158.283 114.802 158.283C114.844 158.283 114.888 158.299 114.935 158.332C114.982 158.365 115.038 158.401 115.103 158.441C115.171 158.48 115.252 158.516 115.348 158.549C115.444 158.582 115.563 158.598 115.705 158.598C115.826 158.598 115.932 158.583 116.023 158.553C116.114 158.52 116.19 158.477 116.251 158.423C116.312 158.369 116.356 158.308 116.384 158.238C116.414 158.168 116.429 158.093 116.429 158.014C116.429 157.916 116.403 157.835 116.349 157.772C116.298 157.707 116.229 157.652 116.142 157.608C116.056 157.561 115.957 157.521 115.845 157.489C115.735 157.454 115.622 157.417 115.505 157.38C115.391 157.343 115.278 157.301 115.166 157.254C115.056 157.205 114.958 157.144 114.872 157.072C114.786 157 114.716 156.911 114.662 156.806C114.611 156.699 114.585 156.569 114.585 156.418C114.585 156.282 114.613 156.153 114.669 156.029C114.725 155.903 114.807 155.793 114.914 155.7C115.021 155.604 115.153 155.529 115.309 155.473C115.466 155.417 115.644 155.389 115.845 155.389C116.078 155.389 116.287 155.426 116.471 155.501C116.658 155.573 116.819 155.673 116.954 155.802L116.814 156.029ZM120.151 156.831C120.151 156.686 120.13 156.554 120.088 156.435C120.048 156.314 119.989 156.21 119.909 156.124C119.832 156.035 119.738 155.967 119.626 155.921C119.514 155.872 119.387 155.847 119.244 155.847C118.946 155.847 118.709 155.935 118.534 156.11C118.361 156.282 118.254 156.523 118.212 156.831H120.151ZM120.655 158.493C120.578 158.586 120.486 158.668 120.378 158.738C120.271 158.806 120.155 158.862 120.032 158.906C119.91 158.95 119.784 158.983 119.654 159.004C119.523 159.027 119.394 159.039 119.265 159.039C119.02 159.039 118.794 158.998 118.586 158.917C118.381 158.833 118.202 158.711 118.051 158.553C117.901 158.392 117.785 158.193 117.701 157.958C117.617 157.722 117.575 157.451 117.575 157.146C117.575 156.898 117.612 156.667 117.687 156.453C117.764 156.238 117.873 156.052 118.016 155.896C118.158 155.737 118.332 155.614 118.537 155.525C118.743 155.434 118.974 155.389 119.23 155.389C119.443 155.389 119.639 155.425 119.818 155.497C120 155.567 120.157 155.67 120.287 155.805C120.42 155.938 120.524 156.104 120.599 156.302C120.673 156.498 120.711 156.722 120.711 156.974C120.711 157.072 120.7 157.137 120.679 157.17C120.658 157.203 120.619 157.219 120.56 157.219H118.191C118.198 157.443 118.228 157.638 118.282 157.804C118.338 157.969 118.415 158.108 118.513 158.22C118.611 158.33 118.727 158.413 118.863 158.469C118.998 158.522 119.15 158.549 119.318 158.549C119.474 158.549 119.608 158.532 119.72 158.497C119.835 158.459 119.933 158.42 120.014 158.378C120.096 158.336 120.164 158.297 120.217 158.262C120.273 158.225 120.321 158.206 120.361 158.206C120.412 158.206 120.452 158.226 120.48 158.266L120.655 158.493ZM124.391 155.445V158.99H124.02C123.932 158.99 123.876 158.947 123.852 158.861L123.803 158.479C123.649 158.649 123.477 158.787 123.285 158.892C123.094 158.995 122.875 159.046 122.627 159.046C122.434 159.046 122.262 159.015 122.113 158.952C121.966 158.886 121.842 158.795 121.742 158.679C121.642 158.562 121.566 158.421 121.514 158.255C121.465 158.089 121.441 157.906 121.441 157.706V155.445H122.064V157.706C122.064 157.974 122.125 158.182 122.246 158.329C122.37 158.476 122.557 158.549 122.809 158.549C122.994 158.549 123.165 158.506 123.324 158.42C123.485 158.331 123.633 158.21 123.768 158.056V155.445H124.391ZM129.638 156.075C129.619 156.1 129.6 156.12 129.582 156.134C129.563 156.148 129.537 156.155 129.505 156.155C129.47 156.155 129.431 156.141 129.389 156.113C129.347 156.083 129.295 156.05 129.232 156.015C129.171 155.98 129.095 155.949 129.004 155.921C128.916 155.89 128.806 155.875 128.675 155.875C128.5 155.875 128.346 155.907 128.213 155.97C128.08 156.03 127.968 156.119 127.877 156.236C127.789 156.352 127.721 156.493 127.674 156.659C127.63 156.825 127.608 157.01 127.608 157.216C127.608 157.43 127.632 157.622 127.681 157.79C127.73 157.955 127.799 158.095 127.888 158.21C127.979 158.322 128.087 158.408 128.213 158.469C128.342 158.527 128.485 158.556 128.644 158.556C128.795 158.556 128.92 158.539 129.018 158.504C129.116 158.466 129.197 158.425 129.26 158.381C129.325 158.337 129.379 158.297 129.421 158.262C129.465 158.225 129.508 158.206 129.55 158.206C129.602 158.206 129.641 158.226 129.669 158.266L129.844 158.493C129.767 158.589 129.68 158.67 129.582 158.738C129.484 158.806 129.378 158.863 129.263 158.91C129.151 158.954 129.033 158.987 128.91 159.008C128.786 159.029 128.66 159.039 128.532 159.039C128.31 159.039 128.104 158.998 127.912 158.917C127.723 158.835 127.559 158.717 127.419 158.563C127.279 158.407 127.169 158.215 127.09 157.989C127.01 157.763 126.971 157.505 126.971 157.216C126.971 156.952 127.007 156.708 127.079 156.484C127.154 156.26 127.261 156.068 127.401 155.907C127.544 155.743 127.717 155.616 127.923 155.525C128.13 155.434 128.368 155.389 128.637 155.389C128.886 155.389 129.106 155.429 129.295 155.511C129.486 155.59 129.655 155.704 129.802 155.851L129.638 156.075ZM132.435 157.394C132.148 157.403 131.903 157.427 131.7 157.464C131.499 157.499 131.334 157.546 131.206 157.604C131.08 157.662 130.988 157.731 130.93 157.811C130.874 157.89 130.846 157.979 130.846 158.077C130.846 158.17 130.861 158.25 130.891 158.318C130.921 158.386 130.962 158.442 131.014 158.486C131.067 158.528 131.129 158.56 131.199 158.581C131.271 158.599 131.348 158.609 131.43 158.609C131.54 158.609 131.64 158.598 131.731 158.577C131.822 158.554 131.907 158.521 131.987 158.479C132.068 158.437 132.145 158.387 132.218 158.329C132.292 158.27 132.365 158.204 132.435 158.129V157.394ZM130.422 155.945C130.618 155.756 130.829 155.615 131.056 155.522C131.282 155.428 131.533 155.382 131.808 155.382C132.006 155.382 132.183 155.414 132.337 155.48C132.491 155.545 132.62 155.636 132.725 155.753C132.83 155.869 132.909 156.01 132.963 156.176C133.017 156.342 133.044 156.524 133.044 156.722V158.99H132.767C132.706 158.99 132.66 158.981 132.627 158.962C132.594 158.941 132.569 158.901 132.55 158.843L132.48 158.507C132.387 158.593 132.296 158.67 132.207 158.738C132.118 158.803 132.025 158.859 131.927 158.906C131.829 158.95 131.724 158.984 131.612 159.008C131.502 159.033 131.38 159.046 131.245 159.046C131.107 159.046 130.977 159.027 130.856 158.99C130.735 158.95 130.629 158.892 130.538 158.815C130.449 158.738 130.378 158.641 130.324 158.525C130.273 158.406 130.247 158.266 130.247 158.105C130.247 157.965 130.286 157.83 130.363 157.702C130.44 157.571 130.564 157.456 130.737 157.356C130.91 157.255 131.135 157.174 131.413 157.111C131.69 157.045 132.031 157.008 132.435 156.999V156.722C132.435 156.447 132.375 156.239 132.256 156.099C132.137 155.957 131.963 155.886 131.735 155.886C131.581 155.886 131.451 155.905 131.346 155.945C131.243 155.982 131.154 156.026 131.077 156.075C131.002 156.121 130.937 156.164 130.881 156.204C130.827 156.241 130.773 156.26 130.72 156.26C130.678 156.26 130.641 156.25 130.611 156.229C130.581 156.205 130.555 156.177 130.534 156.145L130.422 155.945ZM134.584 156.155C134.696 155.912 134.834 155.723 134.997 155.588C135.16 155.45 135.36 155.382 135.596 155.382C135.67 155.382 135.741 155.39 135.809 155.406C135.879 155.422 135.941 155.448 135.995 155.483L135.949 155.949C135.935 156.007 135.9 156.036 135.844 156.036C135.811 156.036 135.764 156.029 135.701 156.015C135.638 156.001 135.566 155.994 135.487 155.994C135.375 155.994 135.275 156.01 135.186 156.043C135.1 156.076 135.022 156.125 134.952 156.19C134.884 156.253 134.822 156.332 134.766 156.428C134.712 156.521 134.663 156.629 134.619 156.75V158.99H133.993V155.445H134.35C134.417 155.445 134.464 155.457 134.49 155.483C134.515 155.509 134.533 155.553 134.542 155.616L134.584 156.155ZM137.134 156.155C137.246 155.912 137.383 155.723 137.547 155.588C137.71 155.45 137.91 155.382 138.145 155.382C138.22 155.382 138.291 155.39 138.359 155.406C138.429 155.422 138.491 155.448 138.544 155.483L138.499 155.949C138.485 156.007 138.45 156.036 138.394 156.036C138.361 156.036 138.313 156.029 138.25 156.015C138.187 156.001 138.116 155.994 138.037 155.994C137.925 155.994 137.824 156.01 137.736 156.043C137.649 156.076 137.571 156.125 137.501 156.19C137.434 156.253 137.372 156.332 137.316 156.428C137.262 156.521 137.213 156.629 137.169 156.75V158.99H136.542V155.445H136.899C136.967 155.445 137.014 155.457 137.039 155.483C137.065 155.509 137.082 155.553 137.092 155.616L137.134 156.155ZM139.75 155.445V158.99H139.127V155.445H139.75ZM139.883 154.332C139.883 154.392 139.87 154.449 139.845 154.503C139.821 154.554 139.789 154.601 139.747 154.643C139.707 154.683 139.659 154.714 139.603 154.738C139.549 154.761 139.492 154.773 139.432 154.773C139.371 154.773 139.314 154.761 139.26 154.738C139.209 154.714 139.163 154.683 139.124 154.643C139.084 154.601 139.052 154.554 139.029 154.503C139.006 154.449 138.994 154.392 138.994 154.332C138.994 154.271 139.006 154.214 139.029 154.16C139.052 154.104 139.084 154.056 139.124 154.017C139.163 153.975 139.209 153.942 139.26 153.919C139.314 153.895 139.371 153.884 139.432 153.884C139.492 153.884 139.549 153.895 139.603 153.919C139.659 153.942 139.707 153.975 139.747 154.017C139.789 154.056 139.821 154.104 139.845 154.16C139.87 154.214 139.883 154.271 139.883 154.332ZM141.362 155.959C141.439 155.873 141.52 155.795 141.607 155.725C141.693 155.655 141.784 155.595 141.88 155.546C141.978 155.495 142.08 155.456 142.188 155.431C142.297 155.403 142.415 155.389 142.541 155.389C142.735 155.389 142.905 155.421 143.052 155.487C143.202 155.55 143.325 155.641 143.423 155.76C143.524 155.876 143.599 156.017 143.651 156.183C143.702 156.349 143.728 156.532 143.728 156.733V158.99H143.101V156.733C143.101 156.464 143.039 156.257 142.916 156.11C142.794 155.96 142.609 155.886 142.359 155.886C142.175 155.886 142.002 155.93 141.841 156.019C141.683 156.107 141.536 156.227 141.4 156.379V158.99H140.774V155.445H141.148C141.237 155.445 141.292 155.488 141.313 155.574L141.362 155.959ZM145.304 155.917C145.455 155.756 145.623 155.628 145.808 155.532C145.992 155.436 146.204 155.389 146.445 155.389C146.638 155.389 146.809 155.421 146.956 155.487C147.105 155.55 147.229 155.641 147.327 155.76C147.427 155.876 147.503 156.017 147.554 156.183C147.605 156.349 147.631 156.532 147.631 156.733V158.99H147.005V156.733C147.005 156.464 146.943 156.257 146.819 156.11C146.698 155.96 146.512 155.886 146.263 155.886C146.078 155.886 145.906 155.93 145.745 156.019C145.586 156.107 145.439 156.227 145.304 156.379V158.99H144.677V153.835H145.304V155.917ZM150.075 155.389C150.334 155.389 150.567 155.432 150.775 155.518C150.983 155.604 151.16 155.727 151.307 155.886C151.454 156.044 151.566 156.237 151.643 156.463C151.722 156.687 151.762 156.938 151.762 157.216C151.762 157.496 151.722 157.748 151.643 157.972C151.566 158.196 151.454 158.387 151.307 158.546C151.16 158.704 150.983 158.827 150.775 158.913C150.567 158.997 150.334 159.039 150.075 159.039C149.814 159.039 149.578 158.997 149.368 158.913C149.16 158.827 148.983 158.704 148.836 158.546C148.689 158.387 148.576 158.196 148.496 157.972C148.419 157.748 148.381 157.496 148.381 157.216C148.381 156.938 148.419 156.687 148.496 156.463C148.576 156.237 148.689 156.044 148.836 155.886C148.983 155.727 149.16 155.604 149.368 155.518C149.578 155.432 149.814 155.389 150.075 155.389ZM150.075 158.553C150.425 158.553 150.686 158.436 150.859 158.203C151.032 157.967 151.118 157.639 151.118 157.219C151.118 156.797 151.032 156.468 150.859 156.232C150.686 155.996 150.425 155.879 150.075 155.879C149.898 155.879 149.742 155.909 149.609 155.97C149.479 156.03 149.369 156.118 149.28 156.232C149.194 156.346 149.129 156.488 149.084 156.656C149.042 156.821 149.021 157.009 149.021 157.219C149.021 157.639 149.108 157.967 149.28 158.203C149.455 158.436 149.72 158.553 150.075 158.553ZM153.301 153.975V155.977C153.301 156.082 153.299 156.184 153.294 156.285C153.289 156.385 153.284 156.486 153.277 156.589C153.27 156.689 153.26 156.793 153.249 156.901C153.239 157.006 153.228 157.119 153.214 157.24H152.794C152.78 157.119 152.767 157.006 152.755 156.901C152.746 156.793 152.738 156.689 152.731 156.589C152.724 156.486 152.718 156.385 152.713 156.285C152.708 156.184 152.706 156.082 152.706 155.977V153.975H153.301ZM152.556 158.605C152.556 158.544 152.566 158.487 152.587 158.434C152.61 158.38 152.642 158.333 152.682 158.294C152.721 158.254 152.767 158.222 152.818 158.199C152.872 158.176 152.93 158.164 152.993 158.164C153.054 158.164 153.11 158.176 153.161 158.199C153.215 158.222 153.261 158.254 153.301 158.294C153.341 158.333 153.372 158.38 153.396 158.434C153.419 158.487 153.431 158.544 153.431 158.605C153.431 158.668 153.419 158.726 153.396 158.78C153.372 158.831 153.341 158.877 153.301 158.917C153.261 158.956 153.215 158.987 153.161 159.008C153.11 159.031 153.054 159.043 152.993 159.043C152.93 159.043 152.872 159.031 152.818 159.008C152.767 158.987 152.721 158.956 152.682 158.917C152.642 158.877 152.61 158.831 152.587 158.78C152.566 158.726 152.556 158.668 152.556 158.605Z" fill="#A0A0A0"/>
</svg>
